<?xml version="1.0" encoding="UTF-8"?> <svg xmlns="http://www.w3.org/2000/svg" width="48" height="48" viewBox="0 0 48 48" fill="none"> <path d="M23.9996 1.41187C11.5246 1.41187 1.41138 11.5251 1.41138 24.0001C1.41138 36.4751 11.5246 46.5883 23.9996 46.5883C36.4746 46.5883 46.5878 36.4751 46.5878 24.0001C46.5739 11.531 36.4687 1.42584 23.9996 1.41187ZM23.9996 45.0825C12.3562 45.0825 2.91726 35.6435 2.91726 24.0001C2.91726 12.3567 12.3562 2.91775 23.9996 2.91775C35.643 2.91775 45.082 12.3567 45.082 24.0001C45.0687 35.638 35.6375 45.0692 23.9996 45.0825Z" fill="#FA6634" stroke="#FA6634" stroke-width="0.75"></path> <path d="M24 35.9994L22.26 34.4456C16.08 28.9485 12 25.323 12 20.8735C12 17.248 14.904 14.3994 18.6 14.3994C20.688 14.3994 22.692 15.3529 24 16.8596C25.308 15.3529 27.312 14.3994 29.4 14.3994C33.096 14.3994 36 17.248 36 20.8735C36 25.323 31.92 28.9485 25.74 34.4574L24 35.9994Z" stroke="#FA6634" stroke-width="2"></path> </svg> 