<?xml version="1.0" encoding="UTF-8"?> <svg xmlns="http://www.w3.org/2000/svg" width="180" height="180" viewBox="0 0 180 180" fill="none"> <g filter="url(#filter0_d)"> <circle cx="90" cy="86" r="60" fill="white"></circle> </g> <g clip-path="url(#clip0)"> <path d="M115.917 73.7581L102.865 58.3935C102.643 58.1502 102.329 58.0117 101.999 58.0117C101.67 58.0117 101.355 58.1502 101.133 58.3935L88.0794 73.7581C84.9877 77.3487 83.5498 82.0747 84.1177 86.7789C84.6749 91.5376 87.2089 95.8422 91.0992 98.6389L100.488 105.499C100.646 105.611 100.816 105.705 100.995 105.779V109.989H70.2709C70.1985 109.988 70.1294 109.958 70.0788 109.907C70.0281 109.855 70.0001 109.785 70.001 109.713V82.9913C70.001 82.439 69.5533 81.9914 69.0011 81.9914C68.4488 81.9914 68.0012 82.4391 68.0012 82.9913V109.713C68.0012 110.967 69.0164 111.985 70.2711 111.989H100.998V112.988C100.998 113.541 101.446 113.988 101.998 113.988C102.55 113.988 102.998 113.541 102.998 112.988V111.989H105.728C106.982 111.985 107.998 110.967 107.998 109.713V106.989C107.998 106.437 107.55 105.989 106.998 105.989C106.445 105.989 105.998 106.437 105.998 106.989V109.713C105.999 109.785 105.971 109.855 105.92 109.907C105.869 109.958 105.8 109.988 105.728 109.989H102.998V105.779C103.177 105.705 103.347 105.611 103.505 105.499L112.894 98.6389C116.786 95.8428 119.321 91.538 119.879 86.7789C120.446 82.0747 119.009 77.3487 115.917 73.7581ZM117.897 86.544C117.401 90.75 115.159 94.5535 111.719 97.024L102.998 103.389V95.4042L110.704 87.6979C111.083 87.3056 111.078 86.6819 110.692 86.2962C110.306 85.9105 109.683 85.9051 109.29 86.2841L102.998 92.5765V84.4052L108.705 78.6987C109.083 78.3064 109.078 77.6827 108.692 77.2971C108.307 76.9113 107.683 76.9059 107.291 77.2849L102.998 81.5775V70.9925C102.998 70.4402 102.55 69.9926 101.998 69.9926C101.446 69.9926 100.998 70.4402 100.998 70.9925V81.5775L96.7056 77.2849C96.3133 76.9059 95.6896 76.9113 95.3039 77.2971C94.9182 77.6828 94.9128 78.3064 95.2917 78.6987L100.998 84.4052V92.5765L94.7059 86.2841C94.3136 85.9051 93.6898 85.9105 93.3042 86.2962C92.9184 86.682 92.9131 87.3056 93.292 87.6979L100.998 95.4042V103.389L92.281 97.021C88.8403 94.552 86.5969 90.7496 86.0996 86.544C85.5998 82.392 86.87 78.2215 89.5993 75.053L101.998 60.4633L114.397 75.053C117.126 78.2213 118.396 82.392 117.897 86.544Z" fill="#020059"></path> <path d="M89.0301 61.1341L92.3349 64.0699C92.7497 64.4147 93.3631 64.3683 93.7214 63.9652C94.0797 63.5621 94.0537 62.9474 93.6627 62.576L90.34 59.6232C89.3471 58.7838 87.8914 58.7906 86.9064 59.6392L71.0008 73.77V66.9926C71.0008 66.4404 70.5531 65.9927 70.0009 65.9927C69.4488 65.9927 69.0011 66.4404 69.0011 66.9926V74.9919C69.004 75.1489 69.0448 75.303 69.1201 75.4408L60.3377 83.2401C60.1384 83.4163 60.0174 83.6646 60.0017 83.9301C59.986 84.1956 60.0766 84.4564 60.2538 84.6549C60.4299 84.8533 60.6775 84.9737 60.9423 84.9895C61.2071 85.0052 61.4673 84.9151 61.6657 84.7389L88.2162 61.1502C88.4459 60.9433 88.7926 60.9366 89.0301 61.1341Z" fill="#FA6634"></path> </g> <defs> <filter id="filter0_d" x="0" y="0" width="180" height="180" filterUnits="userSpaceOnUse" color-interpolation-filters="sRGB"> <feFlood flood-opacity="0" result="BackgroundImageFix"></feFlood> <feColorMatrix in="SourceAlpha" type="matrix" values="0 0 0 0 0 0 0 0 0 0 0 0 0 0 0 0 0 0 127 0"></feColorMatrix> <feOffset dy="4"></feOffset> <feGaussianBlur stdDeviation="15"></feGaussianBlur> <feColorMatrix type="matrix" values="0 0 0 0 0 0 0 0 0 0 0 0 0 0 0 0 0 0 0.1 0"></feColorMatrix> <feBlend mode="normal" in2="BackgroundImageFix" result="effect1_dropShadow"></feBlend> <feBlend mode="normal" in="SourceGraphic" in2="effect1_dropShadow" result="shape"></feBlend> </filter> <clipPath id="clip0"> <rect width="60" height="60" fill="white" transform="translate(60 56)"></rect> </clipPath> </defs> </svg> 