<?xml version="1.0" encoding="UTF-8"?> <svg xmlns="http://www.w3.org/2000/svg" width="180" height="180" viewBox="0 0 180 180" fill="none"> <g filter="url(#filter0_d)"> <circle cx="90" cy="86" r="60" fill="white"></circle> </g> <path d="M115 56H65C62.2399 56.0033 60.0033 58.2399 60 61V79C60.0033 81.76 62.2399 83.9967 65 84.0001H92V112C92 114.209 93.7909 116 96 116H116C118.209 116 120 114.209 120 112V61C119.997 58.2399 117.76 56.0033 115 56ZM118 112C118 113.105 117.105 114 116 114H96C94.8954 114 94 113.105 94 112V109H118V112ZM118 107H94V80H118V107ZM118 78H94V75.9999C94 74.8953 94.8954 73.9999 96 73.9999H116C117.105 73.9999 118 74.8953 118 75.9999V78H118ZM118 72.556C117.395 72.1961 116.704 72.0042 116 72H96C93.7909 72 92 73.7908 92 75.9999V81.9999H65C63.3432 81.9999 62 80.6567 62 78.9999V60.9999C62 59.3431 63.3432 57.9999 65 57.9999H115C116.657 57.9999 118 59.3431 118 60.9999V72.556H118Z" fill="#020059"></path> <path d="M69 68C71.2091 68 72.9999 66.2091 72.9999 64C72.9999 61.7909 71.2091 60 69 60C66.7909 60 65 61.7908 65 64C65 66.2093 66.7909 68 69 68ZM69 62C70.1046 62 71 62.8954 71 64C71 65.1047 70.1046 66 69 66C67.8954 66 66.9999 65.1045 66.9999 63.9999C66.9999 62.8953 67.8954 62 69 62Z" fill="#FA6634"></path> <path d="M91 70H67C65.3432 70 64 71.3431 64 73V77C64 78.6568 65.3431 80 67 80H89C89.5523 80 89.9999 79.5523 89.9999 79C89.9999 78.4477 89.5523 78.0001 89 78.0001H67C66.4477 78.0001 66 77.5524 66 77.0001V76.0002H89.0001C89.5524 76.0002 90 75.5525 90 75.0002C90 74.4479 89.5524 74.0002 89.0001 74.0002H66V73.0003C66 72.448 66.4477 72.0003 67 72.0003H91C91.5523 72.0003 92 71.5527 92 71.0004C92 70.4481 91.5523 70 91 70Z" fill="#020059"></path> <path d="M96 61H76C75.4477 61 75 61.4477 75 62C75 62.5523 75.4477 63 76 63H96C96.5523 63 97 62.5523 97 62C97 61.4477 96.5523 61 96 61Z" fill="#020059"></path> <path d="M96 65H76C75.4477 65 75 65.4477 75 66C75 66.5523 75.4477 66.9999 76 66.9999H96C96.5523 66.9999 97 66.5522 97 66C97 65.4478 96.5523 65 96 65Z" fill="#FA6634"></path> <path d="M71.9001 97.79C71.568 97.5485 71.218 97.3325 70.8532 97.1439C70.4184 96.946 70.0267 96.6647 69.7002 96.3159C69.1374 95.617 68.8999 94.711 69.0472 93.8259C69.2576 93.0006 69.6088 92.2178 70.0853 91.5119C70.2273 91.2708 70.3683 91.0299 70.5013 90.7888L71.7213 88.5748C71.9878 88.0911 71.8117 87.4828 71.3278 87.2163C70.844 86.9498 70.2357 87.1259 69.9692 87.6098L68.7492 89.8238C68.6252 90.0499 68.4932 90.2728 68.3612 90.4978C67.7623 91.4019 67.3285 92.4051 67.0802 93.4607C66.8308 94.9155 67.2151 96.4074 68.1362 97.5608C68.6223 98.1246 69.2207 98.5806 69.8932 98.8997C70.1707 99.0447 70.438 99.2084 70.6932 99.3897C71.3271 99.9023 71.7245 100.651 71.7933 101.464C71.783 102.529 71.4326 103.563 70.7933 104.416C70.6764 104.616 70.5583 104.823 70.4443 105.028L69.0763 107.519C68.889 107.833 68.8881 108.224 69.0739 108.539C69.2598 108.854 69.6029 109.042 69.9684 109.03C70.3339 109.018 70.6637 108.807 70.8282 108.481L72.2003 105.99C72.3073 105.798 72.4173 105.606 72.5283 105.414C73.3896 104.209 73.8328 102.756 73.7903 101.276C73.6692 99.9026 72.9851 98.6406 71.9001 97.79Z" fill="#FA6634"></path> <path d="M87.0901 97.79C86.7576 97.5485 86.4072 97.3325 86.0421 97.1439C85.6071 96.9463 85.2152 96.665 84.8891 96.3159C84.3256 95.6173 84.0876 94.7112 84.235 93.8259C84.4459 93.0008 84.7969 92.2181 85.2731 91.5119C85.4151 91.2708 85.557 91.0299 85.6891 90.7888L86.9091 88.5748C87.1756 88.0911 86.9995 87.4828 86.5156 87.2163C86.0319 86.9498 85.4236 87.1259 85.1571 87.6098L83.9381 89.8238C83.813 90.0499 83.682 90.2728 83.5501 90.4978C82.9508 91.4016 82.5169 92.405 82.2691 93.4607C82.0195 94.9154 82.4034 96.4073 83.3241 97.5608C83.8106 98.1242 84.4089 98.5802 85.0811 98.8997C85.3585 99.0449 85.6258 99.2086 85.8812 99.3897C86.5143 99.9029 86.9115 100.652 86.9812 101.464C86.9711 102.529 86.6207 103.564 85.9812 104.417C85.8632 104.617 85.7463 104.823 85.6332 105.029L84.2602 107.521C84.0806 107.834 84.0841 108.22 84.2694 108.531C84.4546 108.841 84.793 109.027 85.1543 109.017C85.5155 109.008 85.8435 108.804 86.0123 108.485L87.3853 105.994C87.4903 105.802 87.6003 105.61 87.7122 105.42C88.5744 104.214 89.0179 102.76 88.9753 101.279C88.8569 99.9052 88.1743 98.6418 87.0901 97.79Z" fill="#FA6634"></path> <path d="M98.929 91.9239C102.837 88.0249 109.163 88.0249 113.071 91.9239C113.463 92.3029 114.087 92.2975 114.473 91.9118C114.858 91.526 114.864 90.9023 114.485 90.51C109.796 85.8301 102.204 85.8301 97.5149 90.51C97.1359 90.9023 97.1413 91.5261 97.527 91.9118C97.9129 92.2975 98.5366 92.3029 98.929 91.9239Z" fill="#FA6634"></path> <path d="M100.343 93.338C100.083 93.5892 99.9787 93.9609 100.07 94.3106C100.162 94.6601 100.435 94.9332 100.784 95.0247C101.134 95.1162 101.506 95.0119 101.757 94.752C104.102 92.4123 107.898 92.4123 110.243 94.752C110.494 95.0119 110.866 95.1162 111.215 95.0247C111.565 94.9332 111.838 94.6601 111.93 94.3106C112.021 93.9609 111.917 93.5892 111.657 93.338C108.53 90.2191 103.469 90.2191 100.343 93.338Z" fill="#FA6634"></path> <path d="M103.172 96.166C102.793 96.5584 102.798 97.1822 103.184 97.5678C103.57 97.9536 104.194 97.959 104.586 97.58C105.367 96.7992 106.633 96.7992 107.414 97.58C107.806 97.959 108.43 97.9536 108.816 97.5678C109.202 97.182 109.207 96.5584 108.828 96.166C107.266 94.6045 104.734 94.6045 103.172 96.166Z" fill="#FA6634"></path> <defs> <filter id="filter0_d" x="0" y="0" width="180" height="180" filterUnits="userSpaceOnUse" color-interpolation-filters="sRGB"> <feFlood flood-opacity="0" result="BackgroundImageFix"></feFlood> <feColorMatrix in="SourceAlpha" type="matrix" values="0 0 0 0 0 0 0 0 0 0 0 0 0 0 0 0 0 0 127 0"></feColorMatrix> <feOffset dy="4"></feOffset> <feGaussianBlur stdDeviation="15"></feGaussianBlur> <feColorMatrix type="matrix" values="0 0 0 0 0 0 0 0 0 0 0 0 0 0 0 0 0 0 0.1 0"></feColorMatrix> <feBlend mode="normal" in2="BackgroundImageFix" result="effect1_dropShadow"></feBlend> <feBlend mode="normal" in="SourceGraphic" in2="effect1_dropShadow" result="shape"></feBlend> </filter> </defs> </svg> 