<?xml version="1.0" encoding="UTF-8"?> <svg xmlns="http://www.w3.org/2000/svg" width="60" height="60" viewBox="0 0 60 60" fill="none"> <path d="M30 0C13.4316 0 0 13.4316 0 30C0 46.5684 13.4316 60 30 60C46.5684 60 60 46.5684 60 30C60 13.4316 46.5684 0 30 0ZM28.9852 15.6321C29.2067 15.6278 29.4385 15.6619 29.6374 15.6613C29.7183 15.6607 29.7932 15.6546 29.8582 15.6382C37.0224 15.8986 43.2741 22.4112 43.1439 29.5754C43.1439 30.2263 43.4042 31.2685 42.3621 31.2685C41.32 31.2685 41.5803 30.2263 41.5803 29.4452C41.4666 28.501 41.3114 27.6194 41.1137 26.7981C40.916 25.9768 40.6745 25.2152 40.3879 24.5101C39.9572 23.4521 39.4243 22.5213 38.7788 21.7067C36.8436 19.2622 33.9039 17.8612 29.7274 17.2017C29.0765 17.0715 28.1645 17.2017 28.1645 16.4199C28.1645 15.7434 28.5545 15.6315 28.9852 15.6321ZM38.8451 29.8357C37.6728 29.9659 37.9332 28.9238 37.803 28.2728C37.0212 23.7137 35.4583 22.0206 30.7696 20.9785C30.118 20.8483 29.0765 20.9785 29.2067 19.9363C29.3369 18.8942 30.379 19.2854 31.03 19.4156C35.7193 19.9363 39.4967 23.8439 39.4967 28.2728C39.3659 28.7936 39.7571 29.7055 38.8451 29.8357ZM35.9797 27.4911C35.9797 28.0118 35.9797 28.6634 35.1979 28.7936C34.6772 28.7936 34.4162 28.403 34.286 27.8817C34.1558 25.9282 33.1136 24.886 31.1602 24.625C30.6394 24.4949 29.9878 24.3647 30.2482 23.5829C30.3784 23.0621 30.8992 23.0621 31.4205 23.0621C33.635 22.9326 35.9797 25.2772 35.9797 27.4911ZM43.2734 41.8194C42.4917 44.0339 39.7564 46.2478 37.4118 46.2478C37.1514 46.1176 36.4998 46.1176 35.8489 45.8572C25.6891 41.4289 18.1343 34.2647 13.9664 23.8445C12.5337 20.4577 14.0966 17.4621 17.6136 16.2897C18.2645 16.0294 18.9161 16.0294 19.567 16.2897C21.1299 16.8105 24.9073 22.1514 25.0375 23.7143C25.1677 25.0168 24.2558 25.6678 23.4746 26.1892C21.9117 27.2313 21.9117 28.664 22.5627 30.0967C24.1256 33.4835 26.7306 35.6974 29.9872 37.2609C31.1596 37.7817 32.3319 37.7817 33.113 36.4792C34.5458 34.2647 36.369 34.2647 38.3231 35.6974C39.2351 36.3484 40.2766 36.9999 41.1886 37.7817C42.4923 38.8232 44.0552 39.7352 43.2734 41.8194Z" fill="#FA6634"></path> </svg> 