<?xml version="1.0" encoding="UTF-8"?> <svg xmlns="http://www.w3.org/2000/svg" width="180" height="180" viewBox="0 0 180 180" fill="none"> <g filter="url(#filter0_d)"> <circle cx="90" cy="86" r="60" fill="white"></circle> </g> <path d="M74.96 60.412C74.4022 59.9335 73.5788 59.94 73.0285 60.427L69.0043 64.0431V63.5692C69.0043 63.0148 68.5567 62.5653 68.0045 62.5653C67.4523 62.5653 67.0048 63.0148 67.0048 63.5692V65.8411L65.338 67.3389C64.9327 67.7101 64.901 68.3399 65.2669 68.7503C65.6328 69.1608 66.2596 69.1984 66.6717 68.8348L74.0031 62.2451L81.3346 68.8348C81.6001 69.078 81.9753 69.1594 82.3171 69.048C82.6589 68.9366 82.9148 68.6495 82.9875 68.296C83.0601 67.9426 82.9382 67.5772 82.6683 67.3389L74.96 60.412Z" fill="#020059"></path> <path d="M80.0021 70.0947C79.45 70.0947 79.0024 70.5441 79.0024 71.0985V78.1258H69.0044V71.0985C69.0044 70.5441 68.5568 70.0947 68.0046 70.0947C67.4524 70.0947 67.0049 70.5441 67.0049 71.0985V78.7634C67.0147 79.5298 67.6413 80.1432 68.4046 80.1337H79.6023C80.3661 80.1415 80.9921 79.5272 81.002 78.7603V71.0985C81.0019 70.5441 80.5542 70.0947 80.0021 70.0947Z" fill="#020059"></path> <path d="M74.0034 82.1416C70.1382 82.1416 67.0049 85.2879 67.0049 89.1689C67.0049 93.0499 70.1383 96.1962 74.0034 96.1962C77.8685 96.1962 81.0019 93.0499 81.0019 89.1689C80.9974 85.2896 77.8667 82.1459 74.0034 82.1416ZM69.0044 89.1689C69.0074 86.7844 70.6776 84.73 73.0035 84.2498V88.5997L69.3043 90.8273C69.1107 90.2958 69.0092 89.7349 69.0044 89.1689ZM70.3347 92.5487L73.8484 90.4318L76.7558 93.3512C74.7133 94.7194 71.9808 94.3779 70.3347 92.5487ZM78.1695 91.9317L75.0031 88.7532V84.2498C76.6308 84.5809 77.9878 85.7035 78.6229 87.2443C79.2579 88.7851 79.088 90.5423 78.1695 91.9317Z" fill="#FA6634"></path> <path d="M113.995 74.1103V70.6738C113.994 69.7997 113.289 69.0913 112.418 69.0907H109.573C108.702 69.0913 107.997 69.7997 107.996 70.6738V74.1103H105.997V67.8158C105.996 66.8571 105.222 66.0801 104.267 66.079H101.727C100.773 66.0801 99.999 66.8571 99.9979 67.8158V74.1103H97.9984V63.0672C97.9984 61.9583 97.1031 61.0594 95.9987 61.0594H93.9991C92.8947 61.0594 91.9995 61.9583 91.9995 63.0672V74.1103H90.9997C90.4476 74.1103 90 73.6607 90 73.1064V61.0595C90 60.505 89.5523 60.0556 89.0002 60.0556C88.4482 60.0556 88.0005 60.505 88.0005 61.0595V73.1064C88.0005 74.7697 89.3433 76.1181 90.9999 76.1181H113.995C114.547 76.1181 114.995 75.6687 114.995 75.1142C114.995 74.5598 114.547 74.1103 113.995 74.1103ZM95.9987 74.1103H93.9991V63.0672H95.9987V74.1103ZM103.997 74.1103H101.998V68.0868H103.997V74.1103ZM111.995 74.1103H109.996V71.0985H111.996V74.1103H111.995Z" fill="#FA6634"></path> <path d="M113.995 94.1884H90.9997C90.4476 94.1884 90 93.739 90 93.1846V91.5924L93.2923 88.2865C93.6872 87.9058 94.311 87.9058 94.706 88.2865L95.8777 89.4631C97.049 90.6389 98.9476 90.6389 100.119 89.4631L104.29 85.2748C104.685 84.8941 105.309 84.8941 105.704 85.2748L106.875 86.4524C108.048 87.6249 109.944 87.6249 111.116 86.4524L114.702 82.8524C115.081 82.4585 115.075 81.8323 114.69 81.4451C114.304 81.0578 113.68 81.0524 113.288 81.4329L109.703 85.0319C109.312 85.4237 108.679 85.4237 108.289 85.0319L107.117 83.8553C105.93 82.7179 104.063 82.7179 102.876 83.8553L98.7051 88.0436C98.3147 88.4355 97.6818 88.4355 97.2914 88.0436L96.1207 86.867C94.9336 85.7295 93.0657 85.7295 91.8786 86.867L90 88.7533V81.1377C90 80.5832 89.5523 80.1338 89.0002 80.1338C88.4482 80.1338 88.0005 80.5833 88.0005 81.1377V93.1846C88.0005 94.8478 89.3433 96.1963 90.9999 96.1963H113.995C114.547 96.1963 114.995 95.7468 114.995 95.1924C114.995 94.6379 114.547 94.1884 113.995 94.1884Z" fill="#020059"></path> <path d="M119.994 102.675V61.6065C120.133 58.6873 117.901 56.2019 114.995 56.0399H65.0052C62.0991 56.202 59.8671 58.6874 60.0062 61.6065V102.675C59.8667 105.595 62.0986 108.081 65.0052 108.243H81.0018V110.251H77.0027C74.7941 110.251 73.0036 112.049 73.0036 114.267V115.27C73.0036 115.825 73.4511 116.274 74.0033 116.274H105.997C106.549 116.274 106.996 115.825 106.996 115.27V114.267C106.996 112.049 105.206 110.251 102.997 110.251H98.9982V108.243H114.995C117.901 108.081 120.133 105.595 119.994 102.675ZM102.997 112.259C104.102 112.259 104.997 113.158 104.997 114.267H75.0031C75.0031 113.158 75.8983 112.259 77.0027 112.259H102.997ZM83.0015 110.251V108.243H96.9986V110.251H83.0015ZM114.995 106.235H65.0052C63.2055 106.069 61.8706 104.485 62.0058 102.676V100.212H117.994V102.676C118.129 104.485 116.795 106.069 114.995 106.235ZM117.994 61.6065V98.204H62.0058V61.6065C61.8706 59.797 63.2056 58.2131 65.0052 58.0477H114.995C116.794 58.2131 118.129 59.797 117.994 61.6065Z" fill="#020059"></path> <defs> <filter id="filter0_d" x="0" y="0" width="180" height="180" filterUnits="userSpaceOnUse" color-interpolation-filters="sRGB"> <feFlood flood-opacity="0" result="BackgroundImageFix"></feFlood> <feColorMatrix in="SourceAlpha" type="matrix" values="0 0 0 0 0 0 0 0 0 0 0 0 0 0 0 0 0 0 127 0"></feColorMatrix> <feOffset dy="4"></feOffset> <feGaussianBlur stdDeviation="15"></feGaussianBlur> <feColorMatrix type="matrix" values="0 0 0 0 0 0 0 0 0 0 0 0 0 0 0 0 0 0 0.1 0"></feColorMatrix> <feBlend mode="normal" in2="BackgroundImageFix" result="effect1_dropShadow"></feBlend> <feBlend mode="normal" in="SourceGraphic" in2="effect1_dropShadow" result="shape"></feBlend> </filter> </defs> </svg> 