<?xml version="1.0" encoding="UTF-8"?> <svg xmlns="http://www.w3.org/2000/svg" width="140" height="140" viewBox="0 0 140 140" fill="none"> <circle cx="70" cy="70" r="70" fill="#F8F8F8"></circle> <path d="M107.09 66.1628C107.126 65.3449 106.994 64.5284 106.702 63.7635C106.41 62.9986 105.965 62.3016 105.393 61.7156C104.776 61.0693 104.034 60.5544 103.213 60.2016C102.392 59.8488 101.508 59.6655 100.615 59.6625H86.2991C86.1248 59.6624 85.9525 59.6255 85.7934 59.5542C85.6343 59.483 85.492 59.379 85.3758 59.2491C85.2595 59.1192 85.172 58.9662 85.1188 58.8002C85.0657 58.6342 85.0481 58.4588 85.0673 58.2856L86.324 46.9758C86.4588 45.7623 86.3362 44.5341 85.9642 43.3712C85.5922 42.2083 84.9792 41.137 84.1652 40.227C83.3511 39.3171 82.3543 38.5891 81.2399 38.0904C80.1254 37.5918 78.9183 37.3338 77.6974 37.3333H77.3253C76.3382 37.3333 75.3917 37.7253 74.6937 38.4233C73.9958 39.1212 73.6037 40.0678 73.6037 41.0548V46.0169C73.5994 49.6346 72.1604 53.103 69.6023 55.6611C67.0441 58.2192 63.5758 59.6583 59.958 59.6625H57.477V55.941C57.477 55.612 57.3463 55.2965 57.1137 55.0638C56.881 54.8312 56.5655 54.7005 56.2365 54.7005H33.9072C33.5782 54.7005 33.2627 54.8312 33.03 55.0638C32.7974 55.2965 32.6667 55.612 32.6667 55.941V100.6C32.6667 100.929 32.7974 101.244 33.03 101.477C33.2627 101.709 33.5782 101.84 33.9072 101.84H56.2365C56.5655 101.84 56.881 101.709 57.1137 101.477C57.3463 101.244 57.477 100.929 57.477 100.6V98.1384C60.9879 100.542 65.142 101.832 69.3971 101.84H92.2114C93.8054 101.842 95.3387 101.229 96.4926 100.129C97.6464 99.0296 98.3319 97.5274 98.4066 95.9352C98.4409 95.1294 98.3119 94.3249 98.0273 93.5703C97.7427 92.8156 97.3084 92.1263 96.7505 91.5438C97.626 91.2399 98.4236 90.7464 99.0864 90.0986C100.246 88.9338 100.896 87.3569 100.895 85.7134C100.889 84.3185 100.407 82.9675 99.5305 81.8827C100.959 81.6267 102.252 80.8756 103.182 79.7613C104.112 78.647 104.62 77.2407 104.617 75.7892C104.612 74.2662 104.042 72.7991 103.018 71.672C104.169 71.2656 105.172 70.5236 105.898 69.5417C106.624 68.5597 107.039 67.3829 107.09 66.1628ZM54.996 99.359H35.1477V57.1815H54.996V99.359ZM103.535 68.4925C102.834 69.1919 101.885 69.5853 100.895 69.5867H89.7304C89.4014 69.5867 89.0859 69.7174 88.8532 69.95C88.6206 70.1826 88.4899 70.4982 88.4899 70.8272C88.4899 71.1562 88.6206 71.4717 88.8532 71.7044C89.0859 71.937 89.4014 72.0677 89.7304 72.0677H98.414C99.401 72.0677 100.348 72.4598 101.046 73.1577C101.743 73.8556 102.136 74.8022 102.136 75.7892C102.136 76.7763 101.743 77.7228 101.046 78.4208C100.348 79.1187 99.401 79.5108 98.414 79.5108H89.7304C89.4014 79.5108 89.0859 79.6415 88.8532 79.8741C88.6206 80.1068 88.4899 80.4223 88.4899 80.7513C88.4899 81.0803 88.6206 81.3958 88.8532 81.6285C89.0859 81.8611 89.4014 81.9918 89.7304 81.9918H94.6925C95.6795 81.9918 96.6261 82.3839 97.324 83.0818C98.0219 83.7798 98.414 84.7264 98.414 85.7134C98.414 86.7004 98.0219 87.647 97.324 88.3449C96.6261 89.0428 95.6795 89.4349 94.6925 89.4349H89.7304C89.4014 89.4349 89.0859 89.5656 88.8532 89.7983C88.6206 90.0309 88.4899 90.3464 88.4899 90.6754C88.4899 91.0044 88.6206 91.32 88.8532 91.5526C89.0859 91.7853 89.4014 91.9159 89.7304 91.9159H91.9311C92.4892 91.918 93.0412 92.0328 93.5539 92.2534C94.0665 92.474 94.5294 92.796 94.9145 93.1999C95.254 93.5433 95.5195 93.9526 95.6947 94.4025C95.8699 94.8525 95.951 95.3336 95.933 95.8161C95.8892 96.7726 95.4776 97.6752 94.7841 98.3353C94.0906 98.9955 93.1689 99.3623 92.2114 99.359H69.3971C65.1567 99.3538 61.0444 97.9057 57.7363 95.2529L57.477 95.0433V62.1436H59.958C64.2336 62.1386 68.3326 60.438 71.3559 57.4147C74.3792 54.3914 76.0798 50.2924 76.0847 46.0169V41.0548C76.0847 40.7258 76.2154 40.4103 76.4481 40.1776C76.6807 39.945 76.9963 39.8143 77.3253 39.8143H77.6974C78.5697 39.8144 79.4321 39.9984 80.2284 40.3544C81.0247 40.7104 81.737 41.2304 82.3187 41.8804C82.9004 42.5303 83.3385 43.2957 83.6043 44.1264C83.8702 44.9572 83.9578 45.8347 83.8615 46.7016L82.6049 58.0102C82.547 58.5301 82.5994 59.0563 82.7586 59.5546C82.9177 60.0529 83.1802 60.512 83.5288 60.902C83.8774 61.292 84.3043 61.6042 84.7816 61.8181C85.259 62.0321 85.7761 62.1429 86.2991 62.1436H100.615C101.173 62.1456 101.725 62.2604 102.237 62.481C102.75 62.7016 103.213 63.0236 103.598 63.4275C103.938 63.7709 104.203 64.1802 104.378 64.6302C104.553 65.0801 104.635 65.5612 104.617 66.0438C104.57 66.9653 104.184 67.8372 103.535 68.4925Z" fill="#020059"></path> <path d="M45.0718 69.5869C44.0904 69.5869 43.1311 69.2958 42.3151 68.7506C41.4991 68.2054 40.8631 67.4304 40.4875 66.5237C40.1119 65.617 40.0137 64.6193 40.2051 63.6567C40.3966 62.6942 40.8692 61.81 41.5631 61.1161C42.2571 60.4221 43.1412 59.9495 44.1038 59.7581C45.0663 59.5666 46.064 59.6649 46.9707 60.0404C47.8774 60.416 48.6524 61.052 49.1976 61.868C49.7429 62.684 50.0339 63.6434 50.0339 64.6248C50.0339 65.9408 49.5111 67.2029 48.5805 68.1335C47.65 69.0641 46.3879 69.5869 45.0718 69.5869ZM45.0718 62.1438C44.5811 62.1438 44.1015 62.2893 43.6935 62.5619C43.2854 62.8345 42.9674 63.222 42.7797 63.6753C42.5919 64.1287 42.5427 64.6275 42.6385 65.1088C42.7342 65.5901 42.9705 66.0322 43.3175 66.3791C43.6645 66.7261 44.1065 66.9624 44.5878 67.0581C45.0691 67.1539 45.5679 67.1047 46.0213 66.917C46.4746 66.7292 46.8621 66.4112 47.1347 66.0032C47.4074 65.5952 47.5529 65.1155 47.5529 64.6248C47.5529 63.9668 47.2915 63.3357 46.8262 62.8704C46.3609 62.4051 45.7298 62.1438 45.0718 62.1438Z" fill="#FA6634"></path> </svg> 