<?xml version="1.0" encoding="UTF-8"?> <svg xmlns="http://www.w3.org/2000/svg" width="60" height="60" viewBox="0 0 60 60" fill="none"> <path d="M30 0C13.4316 0 0 13.4316 0 30C0 46.5684 13.4316 60 30 60C46.5684 60 60 46.5684 60 30C60 13.4316 46.5684 0 30 0ZM46.8756 13.9433L40.1586 45.4885C40.0327 46.1078 39.3269 46.4114 38.791 46.0756L28.4614 39.2247L23.0281 44.2809C22.5444 44.6946 21.7955 44.4932 21.585 43.8922L18.0473 32.7346L8.54762 28.8386C7.81879 28.5064 7.82913 27.3457 8.57621 27.0555L45.6601 12.9188C46.3281 12.6596 47.018 13.2412 46.8756 13.9433Z" fill="#FA6634"></path> <path d="M22.7263 40.5834L23.3298 34.8477L40.0831 18.4716L19.8584 31.7535L22.7263 40.5834Z" fill="#FA6634"></path> </svg> 