<?xml version="1.0" encoding="UTF-8"?> <svg xmlns="http://www.w3.org/2000/svg" width="120" height="120" viewBox="0 0 120 120" fill="none"> <circle cx="60" cy="60" r="60" fill="#2A27CE" fill-opacity="0.04"></circle> <g clip-path="url(#clip0)"> <path d="M92.5475 91.4308H85.8478V54.5822C85.8478 53.9656 85.3478 53.4656 84.7312 53.4656H69.0984V27.7832C69.0984 27.1666 68.5985 26.6666 67.9818 26.6666H38.9496C38.333 26.6666 37.833 27.1666 37.833 27.7832V91.4308H27.7834C27.1667 91.4308 26.6667 91.9308 26.6667 92.5474C26.6667 93.1641 27.1667 93.664 27.7834 93.664H92.5475C93.1642 93.664 93.6642 93.1641 93.6642 92.5474C93.6642 91.9308 93.1642 91.4308 92.5475 91.4308ZM50.1158 91.4308H45.6493V81.3812C45.6493 80.7645 46.1493 80.2646 46.766 80.2646H48.9992C49.6159 80.2646 50.1158 80.7645 50.1158 81.3812V91.4308ZM54.5823 54.5822V91.4308H52.3491V81.3812C52.3491 79.5311 50.8493 78.0313 48.9992 78.0313H46.766C44.9159 78.0313 43.4161 79.5311 43.4161 81.3812V91.4308H40.0662V28.8999H66.8652V53.4656H55.699C55.0823 53.4656 54.5823 53.9656 54.5823 54.5822ZM83.6145 91.4308H56.8156V55.6988H83.6145V91.4308Z" fill="#020059"></path> <path d="M62.3986 42.2993H55.6989C55.0822 42.2993 54.5823 42.7993 54.5823 43.4159V50.1157C54.5823 50.7323 55.0822 51.2323 55.6989 51.2323H62.3986C63.0153 51.2323 63.5153 50.7323 63.5153 50.1157V43.4159C63.5153 42.7993 63.0153 42.2993 62.3986 42.2993ZM61.282 48.9991H56.8155V44.5326H61.282V48.9991Z" fill="#FA6634"></path> <path d="M62.3986 31.1332H55.6989C55.0822 31.1332 54.5823 31.6331 54.5823 32.2498V38.9495C54.5823 39.5662 55.0822 40.0662 55.6989 40.0662H62.3986C63.0153 40.0662 63.5153 39.5662 63.5153 38.9495V32.2498C63.5153 31.6331 63.0153 31.1332 62.3986 31.1332ZM61.282 37.8329H56.8155V33.3664H61.282V37.8329Z" fill="#020059"></path> <path d="M51.2324 42.2993H44.5326C43.916 42.2993 43.416 42.7993 43.416 43.4159V50.1157C43.416 50.7323 43.916 51.2323 44.5326 51.2323H51.2324C51.849 51.2323 52.349 50.7323 52.349 50.1157V43.4159C52.349 42.7993 51.849 42.2993 51.2324 42.2993ZM50.1158 48.9991H45.6493V44.5326H50.1158V48.9991Z" fill="#020059"></path> <path d="M51.2324 31.1332H44.5326C43.916 31.1332 43.416 31.6331 43.416 32.2498V38.9495C43.416 39.5662 43.916 40.0662 44.5326 40.0662H51.2324C51.849 40.0662 52.349 39.5662 52.349 38.9495V32.2498C52.349 31.6331 51.849 31.1332 51.2324 31.1332ZM50.1158 37.8329H45.6493V33.3664H50.1158V37.8329Z" fill="#FA6634"></path> <path d="M51.2324 53.4656H44.5326C43.916 53.4656 43.416 53.9655 43.416 54.5822V61.2819C43.416 61.8986 43.916 62.3986 44.5326 62.3986H51.2324C51.849 62.3986 52.349 61.8986 52.349 61.2819V54.5822C52.349 53.9655 51.849 53.4656 51.2324 53.4656ZM50.1158 60.1653H45.6493V55.6988H50.1158V60.1653Z" fill="#FA6634"></path> <path d="M51.2324 64.6318H44.5326C43.916 64.6318 43.416 65.1318 43.416 65.7485V72.4482C43.416 73.0649 43.916 73.5648 44.5326 73.5648H51.2324C51.849 73.5648 52.349 73.0649 52.349 72.4482V65.7485C52.349 65.1318 51.849 64.6318 51.2324 64.6318ZM50.1158 71.3316H45.6493V66.8651H50.1158V71.3316Z" fill="#FA6634"></path> <path d="M72.4484 78.0313H79.1481C79.7648 78.0313 80.2648 77.5313 80.2648 76.9146V70.2149C80.2648 69.5982 79.7648 69.0983 79.1481 69.0983H72.4484C71.8318 69.0983 71.3318 69.5982 71.3318 70.2149V76.9146C71.3318 77.5313 71.8318 78.0313 72.4484 78.0313ZM73.565 71.3315H78.0315V75.798H73.565V71.3315Z" fill="#020059"></path> <path d="M72.4484 66.8651H79.1481C79.7648 66.8651 80.2648 66.3652 80.2648 65.7485V59.0488C80.2648 58.4321 79.7648 57.9321 79.1481 57.9321H72.4484C71.8318 57.9321 71.3318 58.4321 71.3318 59.0488V65.7485C71.3318 66.3652 71.8318 66.8651 72.4484 66.8651ZM73.565 60.1654H78.0315V64.6319H73.565V60.1654Z" fill="#FA6634"></path> <path d="M72.4484 89.1975H79.1481C79.7648 89.1975 80.2648 88.6975 80.2648 88.0809V81.3811C80.2648 80.7645 79.7648 80.2645 79.1481 80.2645H72.4484C71.8318 80.2645 71.3318 80.7645 71.3318 81.3811V88.0809C71.3318 88.6975 71.8318 89.1975 72.4484 89.1975ZM73.565 82.4978H78.0315V86.9643H73.565V82.4978Z" fill="#020059"></path> <path d="M61.2822 78.0313H67.9819C68.5985 78.0313 69.0985 77.5313 69.0985 76.9146V70.2149C69.0985 69.5982 68.5985 69.0983 67.9819 69.0983H61.2822C60.6655 69.0983 60.1655 69.5982 60.1655 70.2149V76.9146C60.1655 77.5313 60.6655 78.0313 61.2822 78.0313ZM62.3988 71.3315H66.8653V75.798H62.3988V71.3315Z" fill="#FA6634"></path> <path d="M61.2822 66.8651H67.9819C68.5985 66.8651 69.0985 66.3652 69.0985 65.7485V59.0488C69.0985 58.4321 68.5985 57.9321 67.9819 57.9321H61.2822C60.6655 57.9321 60.1655 58.4321 60.1655 59.0488V65.7485C60.1655 66.3652 60.6655 66.8651 61.2822 66.8651ZM62.3988 60.1654H66.8653V64.6319H62.3988V60.1654Z" fill="#020059"></path> <path d="M61.2822 89.1975H67.9819C68.5985 89.1975 69.0985 88.6975 69.0985 88.0809V81.3811C69.0985 80.7645 68.5985 80.2645 67.9819 80.2645H61.2822C60.6655 80.2645 60.1655 80.7645 60.1655 81.3811V88.0809C60.1655 88.6975 60.6655 89.1975 61.2822 89.1975ZM62.3988 82.4978H66.8653V86.9643H62.3988V82.4978Z" fill="#FA6634"></path> </g> <defs> <clipPath id="clip0"> <rect width="66.9974" height="66.9974" fill="white" transform="translate(26.6667 26.6666)"></rect> </clipPath> </defs> </svg> 