<?xml version="1.0" encoding="UTF-8"?> <svg xmlns="http://www.w3.org/2000/svg" width="40" height="40" viewBox="0 0 40 40" fill="none"> <path d="M22.1386 16.9159V16.8689C22.1288 16.8843 22.1163 16.9009 22.1069 16.9159H22.1386Z" fill="#FA6634"></path> <path d="M20 0C8.95441 0 0 8.95441 0 20C0 31.0456 8.95441 40 20 40C31.0456 40 40 31.0456 40 20C40 8.95441 31.0456 0 20 0ZM14.6447 29.3251H9.82033V14.8118H14.6447V29.3251ZM12.2327 12.8314H12.2003C10.582 12.8314 9.53318 11.7156 9.53318 10.3224C9.53318 8.89844 10.6132 7.81514 12.2644 7.81514C13.9155 7.81514 14.9306 8.89804 14.9623 10.3224C14.9623 11.716 13.9159 12.8314 12.2327 12.8314ZM32.0437 29.3251H27.2189V21.5603C27.2189 19.6098 26.5209 18.2787 24.7749 18.2787C23.4418 18.2787 22.6484 19.1759 22.2992 20.0438C22.1719 20.3541 22.139 20.786 22.139 21.22V29.3251H17.3126C17.3126 29.3251 17.3775 16.1742 17.3126 14.8118H22.1382V16.8689C22.7794 15.8813 23.9244 14.4707 26.4873 14.4707C29.6626 14.4707 32.0429 16.5449 32.0429 21.003V29.3251H32.0437Z" fill="#FA6634"></path> </svg> 