<?xml version="1.0" encoding="UTF-8"?> <svg xmlns="http://www.w3.org/2000/svg" width="120" height="120" viewBox="0 0 120 120" fill="none"> <circle cx="60" cy="60" r="60" fill="#2A27CE" fill-opacity="0.04"></circle> <path d="M43.7099 57.0961H36.9771C36.3574 57.0961 35.855 57.5394 35.855 58.0862V65.0169C35.855 65.5637 36.3574 66.0071 36.9771 66.0071H43.7099C44.3296 66.0071 44.832 65.5637 44.832 65.0169V58.0862C44.832 57.5394 44.3296 57.0961 43.7099 57.0961ZM42.5877 64.0268H38.0992V59.0763H42.5877V64.0268Z" fill="#FA6634"></path> <path d="M70.641 57.0961H63.9083C63.2886 57.0961 62.7861 57.5394 62.7861 58.0862V65.0169C62.7861 65.5637 63.2886 66.0071 63.9083 66.0071H70.641C71.2607 66.0071 71.7631 65.5637 71.7631 65.0169V58.0862C71.7631 57.5394 71.2607 57.0961 70.641 57.0961ZM69.5189 64.0268H65.0304V59.0763H69.5189V64.0268Z" fill="#FA6634"></path> <path d="M57.1752 57.0961H50.4424C49.8227 57.0961 49.3203 57.5394 49.3203 58.0862V65.0169C49.3203 65.5637 49.8227 66.0071 50.4424 66.0071H57.1752C57.7949 66.0071 58.2973 65.5637 58.2973 65.0169V58.0862C58.2973 57.5394 57.7949 57.0961 57.1752 57.0961ZM56.0531 64.0268H51.5646V59.0763H56.0531V64.0268Z" fill="#FA6634"></path> <path d="M76.251 58.0862V65.0169C76.251 65.5637 76.7534 66.0071 77.3731 66.0071H84.1058C84.7255 66.0071 85.228 65.5637 85.228 65.0169V58.0862C85.228 57.5394 84.7255 57.0961 84.1058 57.0961H77.3731C76.7534 57.0961 76.251 57.5394 76.251 58.0862ZM78.4952 59.0763H82.9837V64.0268H78.4952V59.0763Z" fill="#FA6634"></path> <path d="M91.9611 33.3334H29.1221C28.5024 33.3334 28 33.7767 28 34.3235V50.1652C28.0029 52.1313 29.3241 53.9096 31.3664 54.696V85.8092C31.3664 86.356 31.8688 86.7993 32.4885 86.7993H88.5947C89.2144 86.7993 89.7168 86.356 89.7168 85.8092V54.696C91.7591 53.9096 93.0803 52.1313 93.0832 50.1652V34.3235C93.0832 33.7767 92.5808 33.3334 91.9611 33.3334ZM30.2442 50.1652V43.2345H36.977V50.1652C36.977 51.8057 35.4698 53.1356 33.6106 53.1356C31.7514 53.1356 30.2442 51.8057 30.2442 50.1652ZM69.5186 84.8191H51.5646V82.8389H69.5186V84.8191ZM69.5186 80.8586H51.5646V78.8784H69.5186V80.8586ZM69.5186 76.8982H51.5646V74.918H69.5186V76.8982ZM69.5186 72.9378H51.5646V70.9575H69.5186V72.9378ZM87.4726 84.8191H71.7628V69.9674C71.7628 69.4206 71.2604 68.9773 70.6407 68.9773H50.4425C49.8228 68.9773 49.3204 69.4206 49.3204 69.9674V84.8191H33.6106V55.1158C35.3766 55.1158 37.0396 54.3821 38.0991 53.1356C39.9583 55.3228 43.4751 55.7662 45.954 54.1257C46.3793 53.8442 46.7571 53.5108 47.0761 53.1356C48.9353 55.3228 52.4521 55.7662 54.931 54.1257C55.3563 53.8442 55.7341 53.5108 56.0531 53.1356C57.9123 55.3228 61.4291 55.7662 63.908 54.1257C64.3333 53.8442 64.7111 53.5108 65.0301 53.1356C66.8893 55.3228 70.4061 55.7662 72.885 54.1257C73.3103 53.8442 73.6881 53.5108 74.0071 53.1356C75.8663 55.3228 79.383 55.7662 81.862 54.1257C82.2872 53.8442 82.6651 53.5108 82.9841 53.1356C84.0437 54.3821 85.7066 55.1158 87.4726 55.1158V84.8191ZM39.2212 50.1652V43.2345H45.954V50.1652C45.954 51.8057 44.4468 53.1356 42.5876 53.1356C40.7284 53.1356 39.2212 51.8057 39.2212 50.1652ZM48.1982 50.1652V43.2345H54.931V50.1652C54.931 51.8057 53.4238 53.1356 51.5646 53.1356C49.7054 53.1356 48.1982 51.8057 48.1982 50.1652ZM57.1752 50.1652V43.2345H63.908V50.1652C63.908 51.8057 62.4008 53.1356 60.5416 53.1356C58.6824 53.1356 57.1752 51.8057 57.1752 50.1652ZM66.1522 50.1652V43.2345H72.885V50.1652C72.885 51.8057 71.3778 53.1356 69.5186 53.1356C67.6594 53.1356 66.1522 51.8057 66.1522 50.1652ZM75.1292 50.1652V43.2345H81.862V50.1652C81.862 51.8057 80.3548 53.1356 78.4956 53.1356C76.6364 53.1356 75.1292 51.8057 75.1292 50.1652ZM90.839 50.1652C90.839 51.8057 89.3318 53.1356 87.4726 53.1356C85.6134 53.1356 84.1062 51.8057 84.1062 50.1652V43.2345H90.839V50.1652ZM90.839 41.2543H30.2442V35.3136H90.839V41.2543Z" fill="#020059"></path> </svg> 