<?xml version="1.0" encoding="UTF-8"?> <svg xmlns="http://www.w3.org/2000/svg" width="48" height="48" viewBox="0 0 48 48" fill="none"> <path d="M23.9996 1.41187C11.5246 1.41187 1.41138 11.5251 1.41138 24.0001C1.41138 36.4751 11.5246 46.5883 23.9996 46.5883C36.4746 46.5883 46.5878 36.4751 46.5878 24.0001C46.5739 11.531 36.4687 1.42584 23.9996 1.41187ZM23.9996 45.0825C12.3562 45.0825 2.91726 35.6435 2.91726 24.0001C2.91726 12.3567 12.3562 2.91775 23.9996 2.91775C35.643 2.91775 45.082 12.3567 45.082 24.0001C45.0687 35.638 35.6375 45.0692 23.9996 45.0825Z" fill="#FA6634" stroke="#FA6634" stroke-width="0.75"></path> <path d="M35.0769 12H18.4615C17.9518 12 17.5385 12.3961 17.5385 12.8846V17.3077H12.9231C12.4133 17.3077 12 17.7038 12 18.1923V34.1154C12 34.6039 12.4133 35 12.9231 35H29.5385C30.0482 35 30.4615 34.6039 30.4615 34.1154V29.6923H35.0769C35.5867 29.6923 36 29.2962 36 28.8077V12.8846C36 12.3961 35.5867 12 35.0769 12ZM28.6154 33.2308H13.8462V19.0769H28.6154V33.2308ZM34.1538 27.9231H30.4615V18.1923C30.4615 17.7038 30.0482 17.3077 29.5385 17.3077H19.3846V13.7692H34.1538V27.9231Z" fill="#FA6634" stroke="#FA6634" stroke-width="0.2"></path> </svg> 