<?xml version="1.0" encoding="UTF-8"?> <svg xmlns="http://www.w3.org/2000/svg" width="140" height="140" viewBox="0 0 140 140" fill="none"> <circle cx="70" cy="70" r="70" fill="#F8F8F8"></circle> <path d="M69.6563 69.6562C67.5407 69.6562 65.4726 69.0288 63.7135 67.8535C61.9544 66.6781 60.5833 65.0074 59.7737 63.0528C58.9641 61.0983 58.7523 58.9475 59.165 56.8725C59.5778 54.7975 60.5965 52.8915 62.0925 51.3955C63.5885 49.8995 65.4945 48.8807 67.5695 48.468C69.6445 48.0553 71.7953 48.2671 73.7499 49.0767C75.7045 49.8863 77.3751 51.2574 78.5505 53.0165C79.7259 54.7756 80.3532 56.8437 80.3532 58.9593C80.3498 61.7953 79.2217 64.514 77.2164 66.5193C75.2111 68.5246 72.4923 69.6527 69.6563 69.6562V69.6562ZM69.6563 50.6395C68.0109 50.6395 66.4023 51.1275 65.0341 52.0417C63.6659 52.9559 62.5996 54.2552 61.9699 55.7755C61.3402 57.2957 61.1754 58.9686 61.4964 60.5824C61.8174 62.1963 62.6098 63.6788 63.7734 64.8423C64.9369 66.0059 66.4194 66.7982 68.0332 67.1193C69.6471 67.4403 71.32 67.2755 72.8402 66.6458C74.3604 66.0161 75.6598 64.9497 76.574 63.5816C77.4882 62.2134 77.9761 60.6048 77.9761 58.9593C77.9736 56.7536 77.0963 54.6388 75.5366 53.0791C73.9768 51.5194 71.8621 50.6421 69.6563 50.6395V50.6395Z" fill="#FA6634"></path> <path d="M105.032 103.619L105.032 103.619C105.12 103.777 105.165 103.956 105.162 104.137C105.16 104.317 105.111 104.495 105.019 104.65C104.927 104.806 104.797 104.936 104.64 105.025C104.483 105.115 104.305 105.163 104.124 105.163H35.1885C35.0076 105.163 34.8299 105.115 34.6729 105.025C34.5158 104.936 34.385 104.806 34.2933 104.65C34.2016 104.495 34.1522 104.317 34.15 104.137C34.1478 103.956 34.1929 103.777 34.2808 103.619L34.2809 103.619L46.1663 82.2255C46.2562 82.0637 46.3878 81.9289 46.5474 81.835C46.707 81.7411 46.8888 81.6917 47.0739 81.6917H56.0938H56.406L56.2109 81.4479C53.3115 77.8266 50.4681 73.8453 48.3503 69.945C46.2308 66.0414 44.8469 62.2349 44.8469 58.9594C44.8469 52.3795 47.4607 46.0692 52.1134 41.4165C56.766 36.7638 63.0764 34.15 69.6562 34.15C76.2361 34.15 82.5465 36.7638 87.1991 41.4165C91.8518 46.0692 94.4656 52.3795 94.4656 58.9594C94.4656 62.235 93.0832 66.0414 90.9644 69.945C88.8473 73.8453 86.004 77.8266 83.1016 81.4479L82.9062 81.6917H83.2187H92.2385C92.4237 81.6917 92.6055 81.7411 92.7651 81.835C92.9246 81.9289 93.0562 82.0636 93.1462 82.2254C93.1462 82.2254 93.1462 82.2255 93.1462 82.2255L105.032 103.619ZM92.3885 58.9594V58.9592C92.3819 52.9323 89.9848 47.1542 85.7231 42.8925C81.4614 38.6309 75.6833 36.2337 69.6564 36.2271L69.6561 36.2271C63.6292 36.2337 57.851 38.6309 53.5894 42.8925C49.3277 47.1542 46.9306 52.9323 46.9239 58.9592V58.9594C46.9239 61.7781 48.0899 65.0651 49.8872 68.4625C51.6862 71.8631 54.1262 75.3899 56.6929 78.6924C61.8265 85.2976 67.4775 91.019 69.5511 93.0586L69.6563 93.1621L69.7614 93.0586C71.8338 91.0195 77.4848 85.297 82.6187 78.691C85.1855 75.3882 87.6258 71.8611 89.4249 68.4606C91.2224 65.0634 92.3885 61.777 92.3885 58.9594ZM54.3064 98.1191L54.2098 98.3313H54.4429H61.2663H61.3723L61.4077 98.2314L62.6723 94.6658L62.7433 94.4656H62.5309H56.0665H55.9699L55.9299 94.5535L54.3064 98.1191ZM45.16 98.1085L45.0363 98.3313H45.2911H51.8364H51.933L51.973 98.2434L53.5953 94.6778L53.6918 94.4656H53.4588H47.2701H47.1817L47.1389 94.5428L45.16 98.1085ZM64.1152 90.6106L64.1483 90.5174L64.0757 90.4503L63.5799 89.9911C63.348 89.7591 63.1901 89.574 63.0133 89.3621C62.9948 89.3399 62.976 89.3173 62.9569 89.2944C62.7931 89.0977 62.6064 88.8735 62.3316 88.5719L62.287 88.5229H62.2207H58.774H58.6774L58.6374 88.6108L57.0151 92.1764L56.9185 92.3885H57.1516H63.3772H63.483L63.5185 92.2888L64.1152 90.6106ZM54.5392 92.3885H54.6357L54.6757 92.3007L56.2992 88.7351L56.3958 88.5229H56.1627H50.5671H50.4788L50.4359 88.6001L48.457 92.1658L48.3333 92.3885H48.5881H54.5392ZM65.9221 92.3714L65.7539 92.1993L65.6735 92.4261L63.6506 98.1335L63.5797 98.3336H63.792H75.5158H75.728L75.6571 98.1336L73.6366 92.4286L73.5563 92.2017L73.388 92.3738C71.7137 94.086 70.5716 95.177 70.3705 95.3687C70.1776 95.5515 69.922 95.6533 69.6562 95.6533C69.3905 95.6533 69.1349 95.5515 68.942 95.3687C68.7408 95.177 67.5976 94.0849 65.9221 92.3714ZM77.9012 98.2314L77.9367 98.3313H78.0426H84.8696H85.1029L85.006 98.119L83.3789 94.5534L83.3389 94.4656H83.2425H76.7768H76.5644L76.6354 94.6658L77.9012 98.2314ZM87.3407 98.2434L87.3807 98.3313H87.4772H94.0214H94.2761L94.1525 98.1085L92.1748 94.5429L92.1319 94.4656H92.0436H85.8549H85.6218L85.7183 94.6778L87.3407 98.2434ZM84.6368 92.3007L84.6768 92.3885H84.7733H90.7243H90.9791L90.8555 92.1658L88.8766 88.6001L88.8337 88.5229H88.7454H83.1498H82.9166L83.0132 88.7351L84.6368 92.3007ZM80.6751 88.6108L80.6351 88.5229H80.5385H77.0953H77.0293L76.9847 88.5716C76.4115 89.1971 75.8591 89.7872 75.3339 90.3483L75.2291 90.4602L75.1668 90.5268L75.1973 90.6128L75.7916 92.2887L75.827 92.3885H75.9329H82.1609H82.3939L82.2974 92.1764L80.6751 88.6108ZM37.0779 102.863L36.9541 103.085H37.209H102.103H102.358L102.235 102.863L91.6684 83.8459L91.6255 83.7688H91.5373H81.2659H81.196L81.151 83.8223C80.4625 84.6427 79.7798 85.4358 79.1113 86.1969L78.8926 86.4458H79.224H89.4454C89.6306 86.4459 89.8125 86.4956 89.9721 86.5896C90.1317 86.6837 90.2632 86.8187 90.3531 86.9807L90.3531 86.9807L96.9507 98.8661C97.0384 99.0242 97.0833 99.2025 97.0809 99.3834C97.0785 99.5642 97.029 99.7412 96.9372 99.897C96.8454 100.053 96.7145 100.182 96.5575 100.272C96.4005 100.361 96.2228 100.408 96.0419 100.408H43.2706H43.2702C43.0892 100.409 42.9113 100.362 42.7539 100.272C42.5966 100.183 42.4655 100.054 42.3734 99.8979C42.2814 99.7421 42.2317 99.5649 42.2292 99.3839C42.2268 99.2029 42.2716 99.0244 42.3594 98.8662L48.957 86.9807L48.957 86.9807C49.0469 86.8187 49.1784 86.6837 49.338 86.5896C49.4976 86.4956 49.6795 86.4459 49.8647 86.4458H60.0861H60.4175L60.1988 86.1969C59.5303 85.4358 58.8477 84.6427 58.1591 83.8223L58.1141 83.7688H58.0442H47.7728H47.6845L47.6417 83.8459L37.0779 102.863Z" fill="#020059" stroke="white" stroke-width="0.3"></path> </svg> 