<?xml version="1.0" encoding="UTF-8"?> <svg xmlns="http://www.w3.org/2000/svg" width="149" height="48" viewBox="0 0 149 48" fill="none"> <path d="M78.3335 32.7018V33.1468C78.3335 34.586 77.8226 35.8 76.8009 36.7888C75.7792 37.7666 74.4333 38.2555 72.7634 38.2555C71.0056 38.2555 69.5553 37.6842 68.4127 36.5416C67.2702 35.388 66.6989 33.9763 66.6989 32.3063C66.6989 30.6364 67.2647 29.2301 68.3963 28.0875C69.5279 26.934 70.9616 26.3572 72.6975 26.3572C73.7522 26.3572 74.719 26.6099 75.5979 27.1152C76.4878 27.6206 77.1744 28.2963 77.6578 29.1422L76.8833 29.6037C76.4988 28.8786 75.9275 28.2963 75.1694 27.8568C74.4223 27.4174 73.5984 27.1976 72.6975 27.1976C71.2033 27.1976 69.9728 27.692 69.006 28.6808C68.0502 29.6586 67.5723 30.8671 67.5723 32.3063C67.5723 33.7456 68.0557 34.9596 69.0225 35.9483C69.9893 36.9261 71.2363 37.415 72.7634 37.415C74.1147 37.415 75.2079 37.047 76.0428 36.3109C76.8778 35.5748 77.3447 34.6464 77.4436 33.5258H72.5491V32.7018H78.3335ZM84.4446 26.5384C85.4774 26.5384 86.3343 26.879 87.0155 27.5602C87.6966 28.2413 88.0372 29.0928 88.0372 30.1145C88.0372 31.1363 87.6966 31.9877 87.0155 32.6689C86.3343 33.3391 85.4774 33.6741 84.4446 33.6741H81.3959V38.0742H80.5225V26.5384H84.4446ZM84.4446 32.8502C85.2357 32.8502 85.8839 32.592 86.3892 32.0756C86.9056 31.5593 87.1638 30.9056 87.1638 30.1145C87.1638 29.3125 86.9056 28.6533 86.3892 28.137C85.8839 27.6206 85.2357 27.3624 84.4446 27.3624H81.3959V32.8502H84.4446ZM99.6229 36.5251C98.4694 37.6787 97.0631 38.2555 95.4041 38.2555C93.7452 38.2555 92.3389 37.6787 91.1853 36.5251C90.0318 35.3606 89.455 33.9543 89.455 32.3063C89.455 30.6584 90.0318 29.2576 91.1853 28.104C92.3389 26.9395 93.7452 26.3572 95.4041 26.3572C97.0631 26.3572 98.4694 26.9395 99.6229 28.104C100.777 29.2576 101.353 30.6584 101.353 32.3063C101.353 33.9543 100.777 35.3606 99.6229 36.5251ZM91.7951 35.9319C92.7839 36.9206 93.9869 37.415 95.4041 37.415C96.8214 37.415 98.0189 36.9206 98.9967 35.9319C99.9855 34.9321 100.48 33.7236 100.48 32.3063C100.48 30.8891 99.9855 29.6861 98.9967 28.6973C98.0189 27.6975 96.8214 27.1976 95.4041 27.1976C93.9869 27.1976 92.7839 27.6975 91.7951 28.6973C90.8173 29.6861 90.3284 30.8891 90.3284 32.3063C90.3284 33.7236 90.8173 34.9321 91.7951 35.9319ZM103.604 38.0248C103.462 38.1676 103.286 38.239 103.077 38.239C102.868 38.239 102.693 38.1676 102.55 38.0248C102.407 37.882 102.336 37.7062 102.336 37.4974C102.336 37.2887 102.407 37.1129 102.55 36.9701C102.693 36.8273 102.868 36.7558 103.077 36.7558C103.286 36.7558 103.462 36.8273 103.604 36.9701C103.747 37.1129 103.819 37.2887 103.819 37.4974C103.819 37.7062 103.747 37.882 103.604 38.0248ZM109.865 29.6531C110.843 29.6531 111.617 29.9552 112.189 30.5595C112.771 31.1528 113.062 31.9493 113.062 32.949V38.0742H112.222V32.949C112.222 32.18 112.007 31.5702 111.579 31.1198C111.161 30.6694 110.568 30.4441 109.799 30.4441C108.953 30.4441 108.261 30.7243 107.723 31.2846C107.184 31.8449 106.915 32.6579 106.915 33.7236V38.0742H106.091V26.5384H106.915V31.3999C107.508 30.2354 108.492 29.6531 109.865 29.6531ZM119.167 38.2555C117.958 38.2555 116.931 37.8435 116.085 37.0195C115.25 36.1845 114.833 35.1628 114.833 33.9543C114.833 32.7458 115.25 31.7295 116.085 30.9056C116.931 30.0706 117.958 29.6531 119.167 29.6531C120.364 29.6531 121.381 30.0706 122.216 30.9056C123.062 31.7295 123.485 32.7458 123.485 33.9543C123.485 35.1628 123.062 36.1845 122.216 37.0195C121.381 37.8435 120.364 38.2555 119.167 38.2555ZM116.678 36.4427C117.36 37.1239 118.189 37.4645 119.167 37.4645C120.145 37.4645 120.969 37.1239 121.639 36.4427C122.309 35.7616 122.644 34.9321 122.644 33.9543C122.644 32.9765 122.309 32.147 121.639 31.4659C120.969 30.7847 120.145 30.4441 119.167 30.4441C118.189 30.4441 117.36 30.7847 116.678 31.4659C116.008 32.147 115.673 32.9765 115.673 33.9543C115.673 34.9321 116.008 35.7616 116.678 36.4427ZM134.268 29.6531C135.169 29.6531 135.894 29.9333 136.443 30.4936C136.992 31.0539 137.267 31.8394 137.267 32.8502V38.0742H136.443V32.8502C136.443 32.0811 136.24 31.4878 135.833 31.0704C135.438 30.6529 134.91 30.4441 134.251 30.4441C133.515 30.4441 132.916 30.6968 132.455 31.2022C132.005 31.7076 131.779 32.4656 131.779 33.4764V38.0742H130.955V32.8502C130.955 32.0811 130.763 31.4878 130.379 31.0704C130.005 30.6529 129.494 30.4441 128.846 30.4441C128.121 30.4441 127.511 30.7023 127.017 31.2187C126.533 31.7241 126.292 32.4766 126.292 33.4764V38.0742H125.468V29.8344H126.292V31.2516C126.863 30.1859 127.747 29.6531 128.945 29.6531C129.549 29.6531 130.076 29.8014 130.527 30.0981C130.977 30.3837 131.307 30.7957 131.516 31.334C131.801 30.7737 132.186 30.3562 132.669 30.0816C133.164 29.7959 133.696 29.6531 134.268 29.6531ZM143.306 29.6531C144.514 29.6531 145.492 30.0816 146.239 30.9385C146.997 31.7955 147.376 32.8117 147.376 33.9873C147.376 34.0312 147.371 34.0971 147.36 34.185C147.36 34.2729 147.36 34.3388 147.36 34.3828H139.894C139.993 35.3056 140.361 36.0527 140.998 36.624C141.647 37.1843 142.443 37.4645 143.388 37.4645C144.047 37.4645 144.624 37.3271 145.118 37.0525C145.613 36.7778 145.986 36.4153 146.239 35.9648L146.964 36.3933C146.623 36.9646 146.14 37.4205 145.514 37.7611C144.888 38.0907 144.173 38.2555 143.371 38.2555C142.108 38.2555 141.07 37.8545 140.257 37.0525C139.444 36.2395 139.037 35.2068 139.037 33.9543C139.037 32.7238 139.433 31.7021 140.224 30.8891C141.026 30.0651 142.053 29.6531 143.306 29.6531ZM143.306 30.4441C142.372 30.4441 141.592 30.7353 140.965 31.3176C140.339 31.8998 139.982 32.6524 139.894 33.5753H146.519C146.431 32.5975 146.08 31.8339 145.464 31.2846C144.86 30.7243 144.141 30.4441 143.306 30.4441Z" fill="#1F1F1F"></path> <path d="M47.5083 15.6877C46.1014 13.4292 44.1405 11.5678 41.8119 10.2803C39.4832 8.99281 36.8641 8.32194 34.2033 8.33141C25.5652 8.33141 18.5521 15.3032 18.5521 23.8955C18.5521 32.4879 25.5652 39.4597 34.2033 39.4597C37.0896 39.4622 39.9203 38.6662 42.3824 37.1599C44.8445 35.6536 46.8419 33.4955 48.1538 30.9246H40.0581C38.0194 30.9294 36.0622 30.1249 34.6163 28.6876C33.1705 27.2503 32.3543 25.2979 32.347 23.2592H58.1835V23.9001C58.1799 28.481 56.8547 32.9635 54.3668 36.8098C51.8788 40.6562 48.334 43.703 44.1574 45.5846H44.13C44.1048 45.5846 44.0796 45.6098 44.0544 45.6098C27.5748 52.7876 6.61582 36.5872 0.090328 47.7132C-1.53246 19.5055 19.248 5.20256 19.248 5.20256C24.1129 1.34921 30.2781 -0.476472 36.4568 0.106513C42.6355 0.689498 48.3503 3.63611 52.4087 8.33141C56.508 4.2298 56.7918 0.0778353 56.7918 0.0778353C56.7918 0.0778353 61.9738 0.434895 63.8049 2.87022C58.4421 13.2272 47.5083 15.6877 47.5083 15.6877Z" fill="url(#paint0_linear)"></path> <path opacity="0.56" d="M45.4713 13.072C43.0019 10.526 39.7356 8.90175 36.2152 8.46914L41.2186 1.07617C45.5681 2.39845 49.4558 4.92225 52.434 8.35698C52.4088 8.35698 50.6555 11.1242 45.4713 13.072Z" fill="url(#paint1_linear)"></path> <path opacity="0.83" d="M48.1789 30.8857H40.0832C38.047 30.8881 36.0929 30.0827 34.6498 28.646C33.2067 27.2094 32.3925 25.2589 32.3859 23.2227H40.9965C41.9395 30.2128 48.1789 30.8857 48.1789 30.8857Z" fill="url(#paint2_linear)"></path> <defs> <linearGradient id="paint0_linear" x1="-0.114434" y1="26.5345" x2="63.8321" y2="26.2049" gradientUnits="userSpaceOnUse"> <stop stop-color="#FA6030"></stop> <stop offset="1" stop-color="#FFC876"></stop> </linearGradient> <linearGradient id="paint1_linear" x1="6628" y1="3738.02" x2="7092.43" y2="3106.38" gradientUnits="userSpaceOnUse"> <stop stop-opacity="0"></stop> <stop offset="0.93" stop-opacity="0.93"></stop> <stop offset="1"></stop> </linearGradient> <linearGradient id="paint2_linear" x1="5985.56" y1="1609.63" x2="7076.07" y2="1609.63" gradientUnits="userSpaceOnUse"> <stop stop-opacity="0"></stop> <stop offset="0.93" stop-opacity="0.93"></stop> <stop offset="1"></stop> </linearGradient> </defs> </svg> 