<?xml version="1.0" encoding="UTF-8"?> <svg xmlns="http://www.w3.org/2000/svg" width="180" height="180" viewBox="0 0 180 180" fill="none"> <g filter="url(#filter0_d)"> <circle cx="90" cy="86" r="60" fill="white"></circle> </g> <path d="M70.7077 79.4927C71.0483 79.5999 71.4204 79.5173 71.6836 79.2759L89.928 62.5418C89.9584 62.5029 90.0143 62.4952 90.0539 62.5248L108.316 79.2728C108.726 79.6162 109.333 79.5768 109.695 79.1833C110.056 78.7899 110.044 78.1816 109.668 77.8025L91.3874 61.0355C90.5875 60.3309 89.3864 60.3378 88.5946 61.0515L78.005 70.7635V66.5071C78.005 65.9551 77.5574 65.5076 77.0054 65.5076C76.4535 65.5076 76.0059 65.9551 76.0059 66.5071V72.5966L70.3323 77.8025C70.0691 78.0439 69.9546 78.4074 70.0322 78.756C70.1095 79.1046 70.3671 79.3855 70.7077 79.4927Z" fill="#020059"></path> <path d="M99.8958 83.843C100.161 83.843 100.415 83.7376 100.603 83.5502L103.43 80.7234C103.821 80.3331 103.821 79.7003 103.43 79.31C96.0089 71.9041 83.9929 71.9041 76.5715 79.31C76.1813 79.7003 76.1813 80.3331 76.5715 80.7234L79.3993 83.5502C79.7896 83.9404 80.4224 83.9404 80.8127 83.5502C85.8903 78.4831 94.1115 78.4831 99.1891 83.5502C99.3765 83.7376 99.6307 83.8429 99.8958 83.843ZM80.128 81.4529L78.7116 80.0365C85.1538 74.3256 94.8461 74.3256 101.288 80.0365L99.8718 81.4529C94.2154 76.5189 85.7844 76.5189 80.128 81.4529Z" fill="#FA6634"></path> <path d="M94.2414 89.4977C94.5065 89.4977 94.7606 89.3923 94.9481 89.2048L97.7749 86.377C98.1651 85.9867 98.1651 85.3539 97.7749 84.9636C93.4782 80.6764 86.522 80.6764 82.2253 84.9636C81.8351 85.3539 81.8351 85.9867 82.2253 86.377L85.0521 89.2048C85.4424 89.595 86.0751 89.595 86.4655 89.2048C88.4187 87.2558 91.5813 87.2558 93.5346 89.2048C93.7221 89.3923 93.9763 89.4976 94.2414 89.4977ZM85.8098 87.1346L84.3844 85.7092C87.6708 83.0923 92.3292 83.0923 95.6158 85.7092L94.1903 87.1346C91.704 85.282 88.2962 85.282 85.8098 87.1346Z" fill="#FA6634"></path> <path d="M87.0015 92.4964C87.0015 94.1525 88.344 95.4952 90.0002 95.4952C91.6565 95.4952 92.999 94.1527 92.999 92.4964C92.999 90.8402 91.6563 89.4977 90.0002 89.4977C88.3441 89.4977 87.0015 90.8402 87.0015 92.4964ZM90.9998 92.4964C90.9998 93.0485 90.5523 93.496 90.0002 93.496C89.4482 93.496 89.0007 93.0485 89.0007 92.4964C89.0007 91.9443 89.4482 91.4969 90.0002 91.4969C90.5523 91.4969 90.9998 91.9443 90.9998 92.4964Z" fill="#FA6634"></path> <path d="M116.989 105.491C116.543 105.493 116.104 105.596 115.703 105.791L109.699 99.7854C109.511 99.5983 109.257 99.4933 108.992 99.4935H103.994V96.4947H114.174C114.661 97.8717 116.069 98.6976 117.508 98.4507C118.948 98.2038 120 96.9557 120 95.4952C120 94.0347 118.948 92.7866 117.508 92.5396C116.069 92.2927 114.661 93.1187 114.174 94.4956H103.994V91.4969H108.992C109.257 91.4969 109.511 91.3915 109.699 91.204L115.704 85.1995C116.104 85.3946 116.543 85.4971 116.989 85.4994C118.645 85.4994 119.987 84.1568 119.987 82.5006C119.987 80.8444 118.645 79.5018 116.989 79.5018C115.332 79.5018 113.99 80.8445 113.99 82.5006C113.992 82.9458 114.094 83.385 114.29 83.785L108.578 89.4977H103.994C103.994 88.9456 103.547 88.4981 102.994 88.4981C102.442 88.4981 101.995 88.9457 101.995 89.4977V101.493H78.0049V89.4977C78.0049 88.9456 77.5573 88.4981 77.0053 88.4981C76.4533 88.4981 76.0058 88.9457 76.0058 89.4977H71.4218L65.7102 83.785C65.9057 83.385 66.0082 82.9458 66.0101 82.5006C66.0101 80.8445 64.6674 79.5018 63.0113 79.5018C61.3552 79.5018 60.0125 80.8445 60.0125 82.5006C60.0125 84.1567 61.3551 85.4994 63.0113 85.4994C63.4565 85.4971 63.8956 85.3946 64.2957 85.1995L70.3012 91.205C70.4887 91.392 70.7429 91.4971 71.0079 91.4969H76.0059V94.4956H65.826C65.3392 93.1187 63.9312 92.2927 62.4917 92.5396C61.0521 92.7866 60 94.0347 60 95.4952C60 96.9557 61.0521 98.2038 62.4917 98.4507C63.9312 98.6976 65.3392 97.8717 65.826 96.4947H76.0058V99.4935H71.0079C70.7429 99.4933 70.4887 99.5982 70.3012 99.7854L64.2967 105.791C63.896 105.596 63.4568 105.493 63.0112 105.491C61.3551 105.491 60.0124 106.834 60.0124 108.49C60.0124 110.146 61.3549 111.489 63.0112 111.489C64.6674 111.489 66.0099 110.146 66.0099 108.49C66.0077 108.044 65.9052 107.605 65.7101 107.204L71.4216 101.493H76.0058V101.593C75.9974 102.633 76.8337 103.483 77.874 103.492H102.126C103.166 103.483 104.003 102.633 103.994 101.593V101.493H108.578L114.29 107.204C114.095 107.605 113.993 108.044 113.99 108.49C113.99 110.146 115.333 111.489 116.989 111.489C118.645 111.489 119.988 110.146 119.988 108.49C119.988 106.834 118.645 105.491 116.989 105.491ZM116.989 94.4955C117.541 94.4955 117.988 94.943 117.988 95.4951C117.988 96.0471 117.541 96.4946 116.989 96.4946C116.437 96.4946 115.989 96.047 115.989 95.4951C115.989 94.9431 116.437 94.4955 116.989 94.4955ZM116.078 82.1132C116.233 81.7459 116.59 81.5053 116.989 81.5009C117.44 81.5008 117.835 81.8032 117.954 82.2386C118.072 82.674 117.884 83.1347 117.494 83.3629C117.105 83.5911 116.611 83.5301 116.289 83.2142V83.2003L116.278 83.1923C116.002 82.9046 115.924 82.4806 116.078 82.1132ZM63.7249 83.2003H63.7108L63.7038 83.2113C63.4162 83.4877 62.9918 83.5668 62.624 83.4123C62.2562 83.2578 62.0155 82.8995 62.0115 82.5006C62.0114 82.0494 62.3137 81.654 62.7491 81.5358C63.1845 81.4177 63.6452 81.6058 63.8734 81.995C64.1017 82.3842 64.0408 82.878 63.7249 83.2003ZM63.0112 96.4947C62.4591 96.4947 62.0116 96.0471 62.0116 95.4952C62.0116 94.9432 62.4591 94.4956 63.0112 94.4956C63.5633 94.4956 64.0107 94.9431 64.0107 95.4952C64.0107 96.0473 63.5633 96.4947 63.0112 96.4947ZM63.9226 108.877C63.768 109.245 63.4098 109.485 63.0112 109.489C62.5603 109.489 62.1654 109.187 62.0474 108.751C61.9293 108.316 62.1172 107.856 62.5061 107.628C62.895 107.399 63.3885 107.46 63.711 107.775V107.79L63.7229 107.798C63.9988 108.086 64.0773 108.51 63.9226 108.877ZM117.251 109.454C116.815 109.572 116.355 109.384 116.127 108.995C115.898 108.606 115.959 108.112 116.274 107.79H116.289L116.297 107.778C116.585 107.502 117.009 107.424 117.377 107.578C117.744 107.733 117.985 108.091 117.988 108.49C117.988 108.941 117.686 109.336 117.251 109.454Z" fill="#020059"></path> <defs> <filter id="filter0_d" x="0" y="0" width="180" height="180" filterUnits="userSpaceOnUse" color-interpolation-filters="sRGB"> <feFlood flood-opacity="0" result="BackgroundImageFix"></feFlood> <feColorMatrix in="SourceAlpha" type="matrix" values="0 0 0 0 0 0 0 0 0 0 0 0 0 0 0 0 0 0 127 0"></feColorMatrix> <feOffset dy="4"></feOffset> <feGaussianBlur stdDeviation="15"></feGaussianBlur> <feColorMatrix type="matrix" values="0 0 0 0 0 0 0 0 0 0 0 0 0 0 0 0 0 0 0.1 0"></feColorMatrix> <feBlend mode="normal" in2="BackgroundImageFix" result="effect1_dropShadow"></feBlend> <feBlend mode="normal" in="SourceGraphic" in2="effect1_dropShadow" result="shape"></feBlend> </filter> </defs> </svg> 