<?xml version="1.0" encoding="UTF-8"?> <svg xmlns="http://www.w3.org/2000/svg" width="164" height="48" viewBox="0 0 164 48" fill="none"> <path d="M78.98 35.34V36.06C78.98 37.7933 78.36 39.26 77.12 40.46C75.88 41.6467 74.22 42.24 72.14 42.24C70.02 42.24 68.2667 41.54 66.88 40.14C65.4933 38.74 64.8 37.0267 64.8 35C64.8 32.9733 65.4933 31.26 66.88 29.86C68.2667 28.46 70.02 27.76 72.14 27.76C73.4333 27.76 74.62 28.0733 75.7 28.7C76.78 29.3267 77.6133 30.16 78.2 31.2L76.96 31.92C76.52 31.0667 75.8667 30.3867 75 29.88C74.1333 29.3733 73.18 29.12 72.14 29.12C70.3933 29.12 68.9667 29.6867 67.86 30.82C66.7533 31.9533 66.2 33.3467 66.2 35C66.2 36.6533 66.7533 38.0467 67.86 39.18C68.9667 40.3133 70.3933 40.88 72.14 40.88C73.7133 40.88 74.9733 40.4867 75.92 39.7C76.8667 38.9 77.4067 37.8867 77.54 36.66H71.98V35.34H78.98ZM86.3813 28C87.6346 28 88.6813 28.42 89.5213 29.26C90.3613 30.1 90.7813 31.1467 90.7813 32.4C90.7813 33.6533 90.3613 34.7 89.5213 35.54C88.6813 36.38 87.6346 36.8 86.3813 36.8H82.7813V42H81.3813V28H86.3813ZM86.3813 35.48C87.2479 35.48 87.9613 35.1933 88.5213 34.62C89.0946 34.0333 89.3813 33.2933 89.3813 32.4C89.3813 31.5067 89.0946 30.7733 88.5213 30.2C87.9613 29.6133 87.2479 29.32 86.3813 29.32H82.7813V35.48H86.3813ZM104.66 40.14C103.26 41.54 101.547 42.24 99.5205 42.24C97.4938 42.24 95.7805 41.54 94.3805 40.14C92.9805 38.7267 92.2805 37.0133 92.2805 35C92.2805 32.9867 92.9805 31.28 94.3805 29.88C95.7805 28.4667 97.4938 27.76 99.5205 27.76C101.547 27.76 103.26 28.4667 104.66 29.88C106.06 31.28 106.76 32.9867 106.76 35C106.76 37.0133 106.06 38.7267 104.66 40.14ZM95.3605 39.18C96.4805 40.3133 97.8671 40.88 99.5205 40.88C101.174 40.88 102.56 40.3133 103.68 39.18C104.8 38.0333 105.36 36.64 105.36 35C105.36 33.36 104.8 31.9733 103.68 30.84C102.56 29.6933 101.174 29.12 99.5205 29.12C97.8671 29.12 96.4805 29.6933 95.3605 30.84C94.2405 31.9733 93.6805 33.36 93.6805 35C93.6805 36.64 94.2405 38.0333 95.3605 39.18ZM109.639 41.88C109.425 42.0933 109.165 42.2 108.859 42.2C108.552 42.2 108.292 42.0933 108.079 41.88C107.865 41.6667 107.759 41.4067 107.759 41.1C107.759 40.7933 107.865 40.5333 108.079 40.32C108.292 40.1067 108.552 40 108.859 40C109.165 40 109.425 40.1067 109.639 40.32C109.852 40.5333 109.959 40.7933 109.959 41.1C109.959 41.4067 109.852 41.6667 109.639 41.88ZM117.248 31.76C118.461 31.76 119.415 32.1333 120.108 32.88C120.815 33.6133 121.168 34.6067 121.168 35.86V42H119.848V35.86C119.848 34.9667 119.608 34.2733 119.128 33.78C118.661 33.2867 117.995 33.04 117.128 33.04C116.168 33.04 115.388 33.3467 114.788 33.96C114.188 34.56 113.888 35.4933 113.888 36.76V42H112.568V28H113.888V33.56C114.635 32.36 115.755 31.76 117.248 31.76ZM132.1 40.74C131.087 41.74 129.847 42.24 128.38 42.24C126.914 42.24 125.667 41.74 124.64 40.74C123.627 39.7267 123.12 38.48 123.12 37C123.12 35.52 123.627 34.28 124.64 33.28C125.667 32.2667 126.914 31.76 128.38 31.76C129.847 31.76 131.087 32.2667 132.1 33.28C133.127 34.28 133.64 35.52 133.64 37C133.64 38.48 133.127 39.7267 132.1 40.74ZM125.58 39.82C126.34 40.58 127.274 40.96 128.38 40.96C129.487 40.96 130.42 40.58 131.18 39.82C131.94 39.0467 132.32 38.1067 132.32 37C132.32 35.8933 131.94 34.96 131.18 34.2C130.42 33.4267 129.487 33.04 128.38 33.04C127.274 33.04 126.34 33.4267 125.58 34.2C124.82 34.96 124.44 35.8933 124.44 37C124.44 38.1067 124.82 39.0467 125.58 39.82ZM146.509 31.76C147.629 31.76 148.529 32.12 149.209 32.84C149.903 33.56 150.249 34.5333 150.249 35.76V42H148.929V35.76C148.929 34.8933 148.703 34.2267 148.249 33.76C147.809 33.28 147.223 33.04 146.489 33.04C145.663 33.04 144.989 33.32 144.469 33.88C143.963 34.4267 143.709 35.2867 143.709 36.46V42H142.389V35.76C142.389 34.88 142.176 34.2067 141.749 33.74C141.336 33.2733 140.769 33.04 140.049 33.04C139.249 33.04 138.569 33.32 138.009 33.88C137.449 34.44 137.169 35.3 137.169 36.46V42H135.849V32H137.169V33.46C137.889 32.3267 138.909 31.76 140.229 31.76C141.669 31.76 142.683 32.3667 143.269 33.58C143.989 32.3667 145.069 31.76 146.509 31.76ZM157.422 31.76C158.902 31.76 160.096 32.2867 161.002 33.34C161.922 34.38 162.382 35.6133 162.382 37.04C162.382 37.1867 162.369 37.3933 162.342 37.66H153.562C153.696 38.6733 154.122 39.48 154.842 40.08C155.576 40.6667 156.476 40.96 157.542 40.96C158.302 40.96 158.956 40.8067 159.502 40.5C160.062 40.18 160.482 39.7667 160.762 39.26L161.922 39.94C161.482 40.6467 160.882 41.2067 160.122 41.62C159.362 42.0333 158.496 42.24 157.522 42.24C155.949 42.24 154.669 41.7467 153.682 40.76C152.696 39.7733 152.202 38.52 152.202 37C152.202 35.5067 152.689 34.26 153.662 33.26C154.636 32.26 155.889 31.76 157.422 31.76ZM157.422 33.04C156.382 33.04 155.509 33.3533 154.802 33.98C154.109 34.5933 153.696 35.3933 153.562 36.38H161.022C160.889 35.3267 160.482 34.5067 159.802 33.92C159.122 33.3333 158.329 33.04 157.422 33.04Z" fill="#1F1F1F"></path> <path d="M47.6536 15.782C46.2424 13.5099 44.2755 11.6373 41.9397 10.3421C39.604 9.04686 36.9769 8.37195 34.3079 8.38148C25.6433 8.38148 18.6089 15.3952 18.6089 24.0392C18.6089 32.6831 25.6433 39.6968 34.3079 39.6968C37.203 39.6993 40.0424 38.8986 42.512 37.3832C44.9816 35.8678 46.9852 33.6969 48.301 31.1104H40.1806C38.1357 31.1153 36.1725 30.3059 34.7222 28.86C33.2719 27.4141 32.4532 25.45 32.4459 23.399H58.3614V24.0438C58.3578 28.6521 57.0285 33.1616 54.533 37.031C52.0375 40.9005 48.4818 43.9656 44.2925 45.8586H44.2649C44.2397 45.8586 44.2144 45.8839 44.1892 45.8839C27.6591 53.1049 6.63605 36.8071 0.0906043 48C-1.53715 19.6228 19.3068 5.23382 19.3068 5.23382C24.1867 1.35732 30.3707 -0.479336 36.5683 0.107153C42.7659 0.693642 48.4982 3.65796 52.569 8.38148C56.6808 4.25522 56.9655 0.078303 56.9655 0.078303C56.9655 0.078303 62.1633 0.437508 64 2.88747C58.6208 13.3067 47.6536 15.782 47.6536 15.782Z" fill="url(#paint0_linear)"></path> <defs> <linearGradient id="paint0_linear" x1="-0.114784" y1="26.694" x2="64.0273" y2="26.3643" gradientUnits="userSpaceOnUse"> <stop stop-color="#FA6030"></stop> <stop offset="1" stop-color="#FFC876"></stop> </linearGradient> </defs> </svg> 