<?xml version="1.0" encoding="UTF-8"?> <svg xmlns="http://www.w3.org/2000/svg" width="48" height="48" viewBox="0 0 48 48" fill="none"> <path d="M23.9997 1.41211C11.5247 1.41211 1.4115 11.5253 1.4115 24.0003C1.4115 36.4753 11.5247 46.5886 23.9997 46.5886C36.4747 46.5886 46.588 36.4753 46.588 24.0003C46.574 11.5312 36.4689 1.42608 23.9997 1.41211ZM23.9997 45.0827C12.3564 45.0827 2.91738 35.6437 2.91738 24.0003C2.91738 12.357 12.3564 2.91799 23.9997 2.91799C35.6431 2.91799 45.0821 12.357 45.0821 24.0003C45.0689 35.6382 35.6376 45.0695 23.9997 45.0827Z" fill="#020059" stroke="#020059" stroke-width="0.75"></path> <path d="M26.4 21.6001L12 36.0001" stroke="#020059" stroke-width="2" stroke-linecap="round" stroke-linejoin="round"></path> <path d="M16.2068 31.7932C10.7341 22.6721 18.031 13.551 33.5369 14.4631C34.449 29.9689 25.3279 37.2658 16.2068 31.7932Z" stroke="#020059" stroke-width="2" stroke-linecap="round" stroke-linejoin="round"></path> </svg> 