<?xml version="1.0" encoding="UTF-8"?> <svg xmlns="http://www.w3.org/2000/svg" width="180" height="180" viewBox="0 0 180 180" fill="none"> <g filter="url(#filter0_d)"> <circle cx="90" cy="86" r="60" fill="white"></circle> </g> <path d="M90 56C73.4314 56 60 69.4314 60 86C60 102.569 73.4314 116 90 116C106.569 116 120 102.569 120 86C119.981 69.4392 106.561 56.0187 90 56ZM90 114C74.5361 114 62 101.464 62 86C62 70.5361 74.5361 58 90 58C105.464 58 118 70.5361 118 86C117.982 101.457 105.457 113.982 90 114Z" fill="#020059"></path> <path d="M90 61C76.1928 61 65 72.1928 65 86C65 99.8071 76.1928 111 90 111C103.807 111 115 99.8071 115 86C114.985 72.1993 103.801 61.0154 90 61ZM90 109C77.2974 109 66.9999 98.7025 66.9999 86C66.9999 73.2975 77.2974 63 90 63C102.702 63 113 73.2975 113 86C112.986 98.6966 102.697 108.986 90 109Z" fill="#020059"></path> <path d="M90 71C81.7158 71 75 77.7158 75 86C75 94.2842 81.7158 101 90 101C98.2842 101 105 94.2842 105 86C104.991 77.7196 98.2804 71.0094 90 71ZM90 99C82.8203 99 77 93.1796 77 86C77 78.8204 82.8203 73 90 73C97.1797 73 103 78.8203 103 86C102.992 93.1763 97.1763 98.9918 90 99Z" fill="#020059"></path> <path d="M90.0005 74.9999C83.9281 75.0064 79.0072 79.9275 79.0005 85.9999C79.0005 86.5522 79.4481 86.9999 80.0004 86.9999C80.5528 86.9999 81.0004 86.5522 81.0004 85.9999C81.0004 81.0294 85.0299 76.9999 90.0004 76.9999C94.9709 76.9999 99.0004 81.0294 99.0004 85.9999C99.0004 86.5522 99.4482 86.9999 100 86.9999C100.553 86.9999 101 86.5522 101 85.9999C100.994 79.9275 96.0729 75.0066 90.0005 74.9999Z" fill="#FA6634"></path> <path d="M88 68H91.9999C92.5522 68 92.9999 67.5523 92.9999 67.0001C92.9999 66.4478 92.5521 66.0001 91.9999 66.0001H88C87.4477 66.0001 87 66.4479 87 67.0001C87 67.5523 87.4478 68 88 68Z" fill="#FA6634"></path> <path d="M87 84H85C83.3431 84 82 85.3431 82 87V90.9999C82 92.6567 83.3431 93.9999 85 93.9999H87C88.6568 93.9999 90 92.6568 90 90.9999V87C90 85.3432 88.657 84 87 84ZM84 87C84 86.4477 84.4478 86 85 86H87C87.1614 86.0034 87.3195 86.0467 87.46 86.126L84 89.5861V87ZM88 91.0001C88 91.5524 87.5523 92 87 92H85C84.8389 91.9964 84.6811 91.9528 84.541 91.873L88 88.414V91.0001Z" fill="#FA6634"></path> <path d="M96 89H97C97.5523 89 97.9999 88.5522 97.9999 88.0001C97.9999 87.4477 97.5523 87.0001 97 87.0001H96C94.3432 87.0001 93 88.3433 93 90.0001V91.0001C93 92.6569 94.3431 94.0001 96 94.0001H97C97.5523 94.0001 97.9999 93.5524 97.9999 93.0001C97.9999 92.4478 97.5523 92.0001 97 92.0001H96C95.4477 92.0001 95 91.5525 95 91.0002V90.0002C95 89.4478 95.4477 89 96 89Z" fill="#FA6634"></path> <path d="M87.9994 102H86.9995C86.4472 102 85.9995 102.448 85.9995 103C85.9995 103.552 86.4472 104 86.9995 104H87.9994C88.5517 104 88.9994 103.552 88.9994 103C88.9994 102.448 88.5517 102 87.9994 102Z" fill="#FA6634"></path> <path d="M92.9997 102H91.9997C91.4474 102 90.9998 102.448 90.9998 103C90.9998 103.552 91.4475 104 91.9997 104H92.9997C93.552 104 93.9996 103.552 93.9996 103C93.9996 102.448 93.552 102 92.9997 102Z" fill="#FA6634"></path> <path d="M87.9994 105H86.9995C86.4472 105 85.9995 105.448 85.9995 106C85.9995 106.552 86.4472 107 86.9995 107H87.9994C88.5517 107 88.9994 106.552 88.9994 106C88.9994 105.448 88.5517 105 87.9994 105Z" fill="#FA6634"></path> <path d="M92.9997 105H91.9997C91.4474 105 90.9998 105.448 90.9998 106C90.9998 106.552 91.4475 107 91.9997 107H92.9997C93.552 107 93.9996 106.552 93.9996 106C93.9996 105.448 93.552 105 92.9997 105Z" fill="#FA6634"></path> <path d="M93.7102 86.705C93.8005 86.6094 93.8719 86.4973 93.9202 86.375C94.0268 86.1325 94.0268 85.8564 93.9202 85.614C93.8718 85.4919 93.8005 85.3802 93.7102 85.285C93.6127 85.1968 93.5011 85.1255 93.3802 85.074C93.1366 84.9751 92.8639 84.9751 92.6202 85.074C92.4993 85.1254 92.3877 85.1968 92.2902 85.285C92.1999 85.3803 92.1286 85.492 92.0802 85.614C91.9736 85.8564 91.9736 86.1325 92.0802 86.375C92.1285 86.4973 92.1999 86.6094 92.2902 86.705C92.3877 86.7929 92.4993 86.8639 92.6202 86.915C92.7385 86.9727 92.8687 87.0018 93.0003 86.9999C93.2655 86.9943 93.5189 86.8891 93.7102 86.705Z" fill="#FA6634"></path> <defs> <filter id="filter0_d" x="0" y="0" width="180" height="180" filterUnits="userSpaceOnUse" color-interpolation-filters="sRGB"> <feFlood flood-opacity="0" result="BackgroundImageFix"></feFlood> <feColorMatrix in="SourceAlpha" type="matrix" values="0 0 0 0 0 0 0 0 0 0 0 0 0 0 0 0 0 0 127 0"></feColorMatrix> <feOffset dy="4"></feOffset> <feGaussianBlur stdDeviation="15"></feGaussianBlur> <feColorMatrix type="matrix" values="0 0 0 0 0 0 0 0 0 0 0 0 0 0 0 0 0 0 0.1 0"></feColorMatrix> <feBlend mode="normal" in2="BackgroundImageFix" result="effect1_dropShadow"></feBlend> <feBlend mode="normal" in="SourceGraphic" in2="effect1_dropShadow" result="shape"></feBlend> </filter> </defs> </svg> 