<?xml version="1.0" encoding="UTF-8"?> <svg xmlns="http://www.w3.org/2000/svg" width="120" height="120" viewBox="0 0 120 120" fill="none"> <circle cx="60" cy="60" r="60" fill="#2A27CE" fill-opacity="0.04"></circle> <path d="M45.5017 50.4689H39.5676C39.0214 50.4689 38.5786 50.9122 38.5786 51.459V57.3996C38.5786 57.9464 39.0214 58.3897 39.5676 58.3897H45.5017C46.0479 58.3897 46.4907 57.9464 46.4907 57.3996V51.459C46.4907 50.9122 46.0479 50.4689 45.5017 50.4689ZM44.5127 56.4095H40.5566V52.4491H44.5127V56.4095Z" fill="#FA6634"></path> <path d="M45.5017 40.5676H39.5676C39.0214 40.5676 38.5786 41.0109 38.5786 41.5577V47.4984C38.5786 48.0452 39.0214 48.4885 39.5676 48.4885H45.5017C46.0479 48.4885 46.4907 48.0452 46.4907 47.4984V41.5577C46.4907 41.0109 46.0479 40.5676 45.5017 40.5676ZM44.5127 46.5083H40.5566V42.5478H44.5127V46.5083Z" fill="#020059"></path> <path d="M45.5017 60.3699H39.5676C39.0214 60.3699 38.5786 60.8132 38.5786 61.36V67.3006C38.5786 67.8474 39.0214 68.2908 39.5676 68.2908H45.5017C46.0479 68.2908 46.4907 67.8474 46.4907 67.3006V61.36C46.4907 60.8132 46.0479 60.3699 45.5017 60.3699ZM44.5127 66.3105H40.5566V62.3501H44.5127V66.3105Z" fill="#FA6634"></path> <path d="M63.3034 50.4689H57.3694C56.8232 50.4689 56.3804 50.9122 56.3804 51.459V57.3996C56.3804 57.9464 56.8232 58.3897 57.3694 58.3897H63.3034C63.8496 58.3897 64.2924 57.9464 64.2924 57.3996V51.459C64.2924 50.9122 63.8496 50.4689 63.3034 50.4689ZM62.3144 56.4095H58.3584V52.4491H62.3144V56.4095Z" fill="#FA6634"></path> <path d="M75.1721 58.3897H81.1062C81.6523 58.3897 82.0952 57.9464 82.0952 57.3996V51.459C82.0952 50.9122 81.6523 50.4689 81.1062 50.4689H75.1721C74.6259 50.4689 74.1831 50.9122 74.1831 51.459V57.3996C74.1831 57.9464 74.6259 58.3897 75.1721 58.3897ZM76.1611 52.4491H80.1172V56.4095H76.1611V52.4491Z" fill="#020059"></path> <path d="M75.1721 68.2908H81.1062C81.6523 68.2908 82.0952 67.8474 82.0952 67.3006V61.36C82.0952 60.8132 81.6523 60.3699 81.1062 60.3699H75.1721C74.6259 60.3699 74.1831 60.8132 74.1831 61.36V67.3006C74.1831 67.8474 74.6259 68.2908 75.1721 68.2908ZM76.1611 62.3501H80.1172V66.3105H76.1611V62.3501Z" fill="#020059"></path> <path d="M63.3034 40.5676H57.3694C56.8232 40.5676 56.3804 41.0109 56.3804 41.5577V47.4984C56.3804 48.0452 56.8232 48.4885 57.3694 48.4885H63.3034C63.8496 48.4885 64.2924 48.0452 64.2924 47.4984V41.5577C64.2924 41.0109 63.8496 40.5676 63.3034 40.5676ZM62.3144 46.5083H58.3584V42.5478H62.3144V46.5083Z" fill="#FA6634"></path> <path d="M75.1721 48.4885H81.1062C81.6523 48.4885 82.0952 48.0452 82.0952 47.4984V41.5577C82.0952 41.0109 81.6523 40.5676 81.1062 40.5676H75.1721C74.6259 40.5676 74.1831 41.0109 74.1831 41.5577V47.4984C74.1831 48.0452 74.6259 48.4885 75.1721 48.4885ZM76.1611 42.5478H80.1172V46.5083H76.1611V42.5478Z" fill="#FA6634"></path> <path d="M90.0071 35.6172V31.6567C90.0071 31.1099 89.5642 30.6666 89.0181 30.6666H31.6555C31.1093 30.6666 30.6665 31.1099 30.6665 31.6567V35.6172C30.6665 36.164 31.1093 36.6073 31.6555 36.6073V82.1523C31.1093 82.1523 30.6665 82.5956 30.6665 83.1424V87.1029C30.6665 87.6497 31.1093 88.093 31.6555 88.093H89.0181C89.5642 88.093 90.0071 87.6497 90.0071 87.1029V83.1424C90.0071 82.5956 89.5642 82.1523 89.0181 82.1523V36.6073C89.5642 36.6073 90.0071 36.164 90.0071 35.6172ZM88.0291 86.1128H32.6445V84.1325H88.0291V86.1128ZM60.3368 64.3304C56.5133 64.3304 53.4137 67.4334 53.4137 71.2611V82.1523H33.6335V36.6073H87.04V82.1523H67.2599V71.2611C67.2599 67.4334 64.1603 64.3304 60.3368 64.3304ZM65.2818 71.2611V82.1523H55.3917V71.2611C55.3917 68.5271 57.6058 66.3106 60.3368 66.3106C63.0678 66.3106 65.2818 68.5271 65.2818 71.2611ZM88.0291 34.6271H32.6445V32.6468H88.0291V34.6271Z" fill="#020059"></path> </svg> 