<?xml version="1.0" encoding="UTF-8"?> <svg xmlns="http://www.w3.org/2000/svg" width="120" height="120" viewBox="0 0 120 120" fill="none"> <circle cx="60" cy="60" r="60" fill="#2A27CE" fill-opacity="0.04"></circle> <path d="M93.6526 47.9066L91.4194 35.4312C91.3405 34.9923 90.8694 34.6665 90.3139 34.6666H30.0166C29.4611 34.6665 28.99 34.9923 28.9112 35.4312L26.678 47.9066C26.5904 48.3937 27.0142 48.8452 27.6247 48.9152C27.6773 48.9212 27.7304 48.9242 27.7834 48.9242H32.2499V85.4592C32.2499 85.9514 32.7498 86.3503 33.3665 86.3503H86.9641C87.5807 86.3503 88.0807 85.9514 88.0807 85.4592V48.9242H92.5472C93.1638 48.9243 93.6638 48.5253 93.6639 48.0332C93.6639 47.9908 93.6601 47.9485 93.6526 47.9066ZM65.7484 84.5681H54.5822V68.5284H65.7484V84.5681ZM85.8475 84.5681H67.9816V67.6373C67.9816 67.1452 67.4816 66.7462 66.865 66.7462H53.4656C52.8489 66.7462 52.349 67.1452 52.349 67.6373V84.5681H34.4831V48.9242H85.8475V84.5681ZM29.0709 47.142L30.9847 36.4488H89.3458L91.2597 47.142H29.0709Z" fill="#020059"></path> <path d="M43.4164 61.3993H50.1161C50.7328 61.3993 51.2327 61.0003 51.2327 60.5082V53.3794C51.2327 52.8873 50.7328 52.4883 50.1161 52.4883H43.4164C42.7998 52.4883 42.2998 52.8873 42.2998 53.3794V60.5082C42.2998 61.0003 42.7998 61.3993 43.4164 61.3993ZM44.533 54.2705H48.9995V59.6171H44.533V54.2705Z" fill="#FA6634"></path> <path d="M56.8158 61.3993H63.5155C64.1322 61.3993 64.6321 61.0003 64.6321 60.5082V53.3794C64.6321 52.8873 64.1322 52.4883 63.5155 52.4883H56.8158C56.1992 52.4883 55.6992 52.8873 55.6992 53.3794V60.5082C55.6992 61.0003 56.1992 61.3993 56.8158 61.3993ZM57.9324 54.2705H62.3989V59.6171H57.9324V54.2705Z" fill="#FA6634"></path> <path d="M70.2148 61.3993H76.9145C77.5311 61.3993 78.0311 61.0003 78.0311 60.5082V53.3794C78.0311 52.8873 77.5311 52.4883 76.9145 52.4883H70.2148C69.5981 52.4883 69.0981 52.8873 69.0981 53.3794V60.5082C69.0981 61.0003 69.5981 61.3993 70.2148 61.3993ZM71.3314 54.2705H75.7978V59.6171H71.3314V54.2705Z" fill="#FA6634"></path> </svg> 