<?xml version="1.0" encoding="UTF-8"?> <svg xmlns="http://www.w3.org/2000/svg" width="140" height="140" viewBox="0 0 140 140" fill="none"> <circle cx="70" cy="70" r="70" fill="#F8F8F8"></circle> <path d="M49 58.4833H49.15V58.3333V38.5C49.15 37.6115 49.5029 36.7594 50.1312 36.1312C50.7594 35.5029 51.6115 35.15 52.5 35.15H101.5C102.388 35.15 103.241 35.5029 103.869 36.1312C104.497 36.7594 104.85 37.6115 104.85 38.5V68.8333C104.85 69.7218 104.497 70.5739 103.869 71.2021C103.241 71.8304 102.388 72.1833 101.5 72.1833H99.1667H99.0167V72.3333V80.5C99.0167 80.7135 98.9496 80.9216 98.8248 81.0947C98.7 81.2678 98.524 81.3973 98.3215 81.4648C98.2178 81.4989 98.1092 81.5164 98 81.5167C97.8422 81.5167 97.6865 81.4799 97.5453 81.4093C97.4042 81.3387 97.2814 81.2363 97.1867 81.11L90.5367 72.2433L90.4917 72.1833H90.4167H84H83.85V72.3333V92.1667C83.85 93.0551 83.4971 93.9072 82.8688 94.5355C82.2406 95.1637 81.3885 95.5167 80.5 95.5167H49.5833H49.5083L49.4633 95.5767L42.8133 104.443C42.7186 104.57 42.5958 104.672 42.4547 104.743C42.3136 104.813 42.1581 104.85 42.0003 104.85C41.8909 104.85 41.7822 104.832 41.6782 104.798C41.4759 104.73 41.2999 104.601 41.1752 104.428C41.0504 104.255 40.9833 104.047 40.9833 103.833V95.6667V95.5167H40.8333H38.5C37.6115 95.5167 36.7594 95.1637 36.1312 94.5355C35.5029 93.9072 35.15 93.0551 35.15 92.1667V61.8333C35.15 60.9449 35.5029 60.0928 36.1312 59.4645C36.7594 58.8363 37.6115 58.4833 38.5 58.4833H49ZM43.0167 100.333V100.783L43.2867 100.423L48.1867 93.89C48.2814 93.7637 48.4042 93.6612 48.5453 93.5907C48.6865 93.5201 48.8422 93.4833 49 93.4833H80.5C80.8492 93.4833 81.1841 93.3446 81.431 93.0977C81.6779 92.8508 81.8167 92.5159 81.8167 92.1667V61.8333C81.8167 61.4841 81.6779 61.1492 81.431 60.9023C81.1841 60.6554 80.8492 60.5167 80.5 60.5167H38.5C38.1508 60.5167 37.8159 60.6554 37.569 60.9023C37.3221 61.1492 37.1833 61.4841 37.1833 61.8333V92.1667C37.1833 92.5159 37.3221 92.8508 37.569 93.0977C37.8159 93.3446 38.1508 93.4833 38.5 93.4833H42C42.2696 93.4833 42.5282 93.5904 42.7189 93.7811C42.9096 93.9718 43.0167 94.2304 43.0167 94.5V100.333ZM96.7133 77.09L96.9833 77.45V77V71.1667C96.9833 70.897 97.0904 70.6384 97.2811 70.4478C97.4718 70.2571 97.7304 70.15 98 70.15H101.5C101.849 70.15 102.184 70.0113 102.431 69.7644C102.678 69.5174 102.817 69.1825 102.817 68.8333V38.5C102.817 38.1508 102.678 37.8159 102.431 37.569C102.184 37.3221 101.849 37.1833 101.5 37.1833H52.5C52.1508 37.1833 51.8159 37.3221 51.569 37.569C51.3221 37.8159 51.1833 38.1508 51.1833 38.5V58.3333V58.4833H51.3333H80.5C81.3885 58.4833 82.2406 58.8363 82.8688 59.4645C83.4971 60.0928 83.85 60.9449 83.85 61.8333V70V70.15H84H91C91.1578 70.15 91.3135 70.1867 91.4547 70.2573C91.5958 70.3279 91.7186 70.4304 91.8133 70.5567L96.7133 77.09Z" fill="#020059" stroke="white" stroke-width="0.3"></path> <path d="M50.1667 73.3C49.514 73.3 48.876 73.1065 48.3333 72.7439C47.7906 72.3813 47.3676 71.8659 47.1179 71.2629C46.8681 70.6599 46.8027 69.9963 46.9301 69.3562C47.0574 68.7161 47.3717 68.1281 47.8332 67.6666C48.2947 67.205 48.8827 66.8907 49.5229 66.7634C50.163 66.6361 50.8265 66.7014 51.4295 66.9512C52.0325 67.201 52.5479 67.6239 52.9105 68.1666C53.2731 68.7093 53.4667 69.3473 53.4667 70C53.4667 70.8752 53.119 71.7146 52.5001 72.3335C51.8812 72.9523 51.0419 73.3 50.1667 73.3ZM50.1667 68.6333C49.8964 68.6333 49.6321 68.7135 49.4074 68.8637C49.1826 69.0138 49.0075 69.2273 48.904 69.477C48.8006 69.7267 48.7735 70.0015 48.8263 70.2666C48.879 70.5317 49.0091 70.7753 49.2003 70.9664C49.3914 71.1575 49.6349 71.2877 49.9 71.3404C50.1651 71.3932 50.4399 71.3661 50.6897 71.2626C50.9394 71.1592 51.1528 70.984 51.303 70.7593C51.4532 70.5345 51.5333 70.2703 51.5333 70C51.5333 69.6375 51.3893 69.2899 51.133 69.0336C50.8767 68.7773 50.5291 68.6333 50.1667 68.6333Z" fill="#FA6634" stroke="white" stroke-width="0.4"></path> <path d="M45.3 80.192V80.296L45.385 80.3557C46.7856 81.3391 48.4553 81.8667 50.1666 81.8667C51.878 81.8667 53.5477 81.3391 54.9482 80.3557L55.0333 80.296V80.192V79.3333C55.0333 78.352 54.6435 77.4109 53.9496 76.717C53.2557 76.0232 52.3146 75.6333 51.3333 75.6333H49C48.0187 75.6333 47.0776 76.0232 46.3837 76.717C45.6898 77.4109 45.3 78.352 45.3 79.3333V80.192ZM56.796 78.0219L56.8546 78.2668L57.0799 78.1542L57.0822 78.1531L57.1304 78.129L57.1599 78.084C57.989 76.8224 58.4612 75.3599 58.5266 73.8517C58.592 72.3435 58.2481 70.8456 57.5313 69.517C56.8146 68.1883 55.7517 67.0784 54.4553 66.3047C53.159 65.5311 51.6774 65.1227 50.1678 65.1227C48.6581 65.1227 47.1766 65.5311 45.8803 66.3047C44.5839 67.0784 43.521 68.1883 42.8043 69.517C42.0875 70.8456 41.7436 72.3435 41.809 73.8517C41.8744 75.3599 42.3466 76.8224 43.1757 78.084L43.4296 78.4704L43.5373 78.0208C43.8316 76.7923 44.5303 75.6984 45.5211 74.9148C46.5118 74.1313 47.7371 73.7035 49.0001 73.7C49.0003 73.7 49.0004 73.7 49.0005 73.7H51.3328C51.3329 73.7 51.333 73.7 51.3331 73.7C52.5963 73.7035 53.8217 74.1315 54.8125 74.9153C55.8033 75.6991 56.5019 76.7932 56.796 78.0219ZM44.4443 64.9359C46.1381 63.8041 48.1294 63.2 50.1665 63.2C52.8973 63.2031 55.5154 64.2892 57.4464 66.2202C59.3774 68.1512 60.4636 70.7694 60.4666 73.5002C60.4666 75.5373 59.8625 77.5286 58.7308 79.2224C57.599 80.9162 55.9904 82.2364 54.1083 83.016C52.2262 83.7955 50.1552 83.9995 48.1572 83.6021C46.1592 83.2047 44.3239 82.2237 42.8834 80.7832C41.4429 79.3427 40.462 77.5074 40.0645 75.5094C39.6671 73.5114 39.8711 71.4404 40.6507 69.5584C41.4303 67.6763 42.7504 66.0676 44.4443 64.9359Z" fill="#FA6634" stroke="white" stroke-width="0.4"></path> <path d="M89.8333 49.9666C89.1807 49.9666 88.5426 49.7731 88 49.4105C87.4573 49.0479 87.0343 48.5325 86.7845 47.9295C86.5348 47.3265 86.4694 46.663 86.5968 46.0228C86.7241 45.3827 87.0384 44.7947 87.4999 44.3332C87.9614 43.8717 88.5494 43.5574 89.1896 43.43C89.8297 43.3027 90.4932 43.3681 91.0962 43.6178C91.6992 43.8676 92.2146 44.2906 92.5772 44.8332C92.9398 45.3759 93.1334 46.0139 93.1334 46.6666C93.1334 47.5418 92.7857 48.3812 92.1668 49.0001C91.5479 49.6189 90.7086 49.9666 89.8333 49.9666ZM89.8333 45.3C89.563 45.3 89.2988 45.3801 89.0741 45.5303C88.8493 45.6805 88.6742 45.8939 88.5707 46.1436C88.4673 46.3933 88.4402 46.6681 88.4929 46.9332C88.5457 47.1984 88.6758 47.4419 88.867 47.633C89.0581 47.8241 89.3016 47.9543 89.5667 48.007C89.8318 48.0598 90.1066 48.0327 90.3563 47.9293C90.6061 47.8258 90.8195 47.6507 90.9697 47.4259C91.1199 47.2012 91.2 46.9369 91.2 46.6666C91.2 46.3042 91.056 45.9565 90.7997 45.7002C90.5434 45.4439 90.1958 45.3 89.8333 45.3Z" fill="#020059" stroke="white" stroke-width="0.4"></path> <path d="M84.9667 56.8586V56.9626L85.0518 57.0223C86.4523 58.0057 88.122 58.5333 89.8334 58.5333C91.5447 58.5333 93.2144 58.0057 94.6149 57.0223L94.7 56.9626V56.8586V56C94.7 55.0187 94.3102 54.0775 93.6163 53.3837C92.9224 52.6898 91.9813 52.3 91 52.3H88.6667C87.6854 52.3 86.7443 52.6898 86.0504 53.3837C85.3565 54.0775 84.9667 55.0187 84.9667 56V56.8586ZM96.4627 54.6885L96.5213 54.9333L96.7465 54.8209L96.7488 54.8197L96.7971 54.7957L96.8267 54.7506C97.6557 53.489 98.128 52.0265 98.1933 50.5183C98.2587 49.0101 97.9148 47.5123 97.1981 46.1836C96.4813 44.855 95.4184 43.745 94.122 42.9714C92.8257 42.1977 91.3442 41.7893 89.8345 41.7893C88.3249 41.7893 86.8433 42.1977 85.547 42.9714C84.2506 43.745 83.1877 44.855 82.471 46.1836C81.7542 47.5123 81.4103 49.0101 81.4757 50.5183C81.5411 52.0265 82.0133 53.489 82.8424 54.7506L83.0963 55.137L83.204 54.6874C83.4983 53.4589 84.197 52.3651 85.1878 51.5815C86.1785 50.7979 87.4038 50.3701 88.6669 50.3666C88.667 50.3666 88.6671 50.3666 88.6672 50.3666H90.9995C90.9996 50.3666 90.9997 50.3666 90.9998 50.3666C92.2631 50.3701 93.4885 50.7982 94.4792 51.5819C95.47 52.3657 96.1686 53.4599 96.4627 54.6885ZM84.111 41.6025C85.8048 40.4707 87.7961 39.8666 89.8332 39.8666C92.5641 39.8697 95.1822 40.9559 97.1131 42.8868C99.0442 44.8178 100.13 47.436 100.133 50.1668C100.133 52.2039 99.5292 54.1952 98.3975 55.889C97.2657 57.5828 95.6571 58.903 93.775 59.6826C91.8929 60.4622 89.8219 60.6661 87.8239 60.2687C85.8259 59.8713 83.9906 58.8903 82.5502 57.4498C81.1097 56.0093 80.1287 54.1741 79.7313 52.1761C79.3338 50.1781 79.5378 48.1071 80.3174 46.225C81.097 44.3429 82.4171 42.7343 84.111 41.6025Z" fill="#020059" stroke="white" stroke-width="0.4"></path> <path d="M78.1666 69.8H64.1666C63.9103 69.8 63.6644 69.6981 63.4831 69.5168C63.3018 69.3355 63.2 69.0897 63.2 68.8333C63.2 68.5769 63.3018 68.331 63.4831 68.1498C63.6644 67.9685 63.9103 67.8666 64.1666 67.8666H78.1666C78.423 67.8666 78.6689 67.9685 78.8502 68.1498C79.0315 68.331 79.1333 68.5769 79.1333 68.8333C79.1333 69.0897 79.0315 69.3355 78.8502 69.5168C78.6689 69.6981 78.423 69.8 78.1666 69.8Z" fill="#020059" stroke="white" stroke-width="0.4"></path> <path d="M78.1666 74.4667H64.1666C63.9103 74.4667 63.6644 74.3649 63.4831 74.1836C63.3018 74.0023 63.2 73.7564 63.2 73.5C63.2 73.2437 63.3018 72.9978 63.4831 72.8165C63.6644 72.6352 63.9103 72.5334 64.1666 72.5334H78.1666C78.423 72.5334 78.6689 72.6352 78.8502 72.8165C79.0315 72.9978 79.1333 73.2437 79.1333 73.5C79.1333 73.7564 79.0315 74.0023 78.8502 74.1836C78.6689 74.3649 78.423 74.4667 78.1666 74.4667Z" fill="#FA6634" stroke="white" stroke-width="0.4"></path> <path d="M78.1666 79.1333H64.1666C63.9103 79.1333 63.6644 79.0315 63.4831 78.8502C63.3018 78.6689 63.2 78.423 63.2 78.1667C63.2 77.9103 63.3018 77.6644 63.4831 77.4831C63.6644 77.3018 63.9103 77.2 64.1666 77.2H78.1666C78.423 77.2 78.6689 77.3018 78.8502 77.4831C79.0315 77.6644 79.1333 77.9103 79.1333 78.1667C79.1333 78.423 79.0315 78.6689 78.8502 78.8502C78.6689 79.0315 78.423 79.1333 78.1666 79.1333Z" fill="#020059" stroke="white" stroke-width="0.4"></path> <path d="M75.8334 89.3667H43.1667C42.8573 89.3667 42.5605 89.2683 42.3417 89.0933C42.1229 88.9183 42 88.6809 42 88.4333C42 88.1858 42.1229 87.9484 42.3417 87.7734C42.5605 87.5983 42.8573 87.5 43.1667 87.5H75.8334C76.1428 87.5 76.4395 87.5983 76.6583 87.7734C76.8771 87.9484 77 88.1858 77 88.4333C77 88.6809 76.8771 88.9183 76.6583 89.0933C76.4395 89.2683 76.1428 89.3667 75.8334 89.3667Z" fill="#FA6634"></path> <path d="M75.8333 46.4667H57.1667C56.9103 46.4667 56.6644 46.3649 56.4831 46.1836C56.3018 46.0023 56.2 45.7564 56.2 45.5C56.2 45.2437 56.3018 44.9978 56.4831 44.8165C56.6644 44.6352 56.9103 44.5334 57.1667 44.5334H75.8333C76.0897 44.5334 76.3356 44.6352 76.5169 44.8165L76.6583 44.6751L76.5169 44.8165C76.6982 44.9978 76.8 45.2437 76.8 45.5C76.8 45.7564 76.6982 46.0023 76.5169 46.1836L76.6583 46.325L76.5169 46.1836C76.3356 46.3649 76.0897 46.4667 75.8333 46.4667Z" fill="#FA6634" stroke="white" stroke-width="0.4"></path> <path d="M75.8333 51.1333H57.1667C56.9103 51.1333 56.6644 51.0315 56.4831 50.8502C56.3018 50.6689 56.2 50.423 56.2 50.1667C56.2 49.9103 56.3018 49.6644 56.4831 49.4831C56.6644 49.3018 56.9103 49.2 57.1667 49.2H75.8333C76.0897 49.2 76.3356 49.3018 76.5169 49.4831L76.6583 49.3417L76.5169 49.4831C76.6982 49.6644 76.8 49.9103 76.8 50.1667C76.8 50.423 76.6982 50.6689 76.5169 50.8502L76.6583 50.9916L76.5169 50.8502C76.3356 51.0315 76.0897 51.1333 75.8333 51.1333Z" fill="#020059" stroke="white" stroke-width="0.4"></path> <path d="M75.8333 55.8H57.1667C56.9103 55.8 56.6644 55.6981 56.4831 55.5168C56.3018 55.3355 56.2 55.0897 56.2 54.8333C56.2 54.5769 56.3018 54.331 56.4831 54.1498C56.6644 53.9685 56.9103 53.8666 57.1667 53.8666H75.8333C76.0897 53.8666 76.3356 53.9685 76.5169 54.1498L76.6583 54.0083L76.5169 54.1498C76.6982 54.331 76.8 54.5769 76.8 54.8333C76.8 55.0897 76.6982 55.3355 76.5169 55.5168L76.655 55.655L76.5169 55.5168C76.3356 55.6981 76.0897 55.8 75.8333 55.8Z" fill="#FA6634" stroke="white" stroke-width="0.4"></path> </svg> 